%TF.GenerationSoftware,KiCad,Pcbnew,(5.99.0-12635-ga738257c43)*%
%TF.CreationDate,2021-10-13T00:21:35+02:00*%
%TF.ProjectId,plate,706c6174-652e-46b6-9963-61645f706362,rev?*%
%TF.SameCoordinates,Original*%
%TF.FileFunction,Paste,Top*%
%TF.FilePolarity,Positive*%
%FSLAX46Y46*%
G04 Gerber Fmt 4.6, Leading zero omitted, Abs format (unit mm)*
G04 Created by KiCad (PCBNEW (5.99.0-12635-ga738257c43)) date 2021-10-13 00:21:35*
%MOMM*%
%LPD*%
G01*
G04 APERTURE LIST*
G04 APERTURE END LIST*
%TO.C, *%
G36*
X161778239Y-129240553D02*
G01*
X161807802Y-129168389D01*
X161851785Y-129144745D01*
X161885130Y-129176059D01*
X161890000Y-129211835D01*
X161906257Y-129282999D01*
X161948765Y-129293169D01*
X162008132Y-129253083D01*
X162074962Y-129173481D01*
X162139863Y-129065100D01*
X162193440Y-128938680D01*
X162221664Y-128832687D01*
X162229950Y-128718519D01*
X162191354Y-128654480D01*
X162092549Y-128625469D01*
X162034313Y-128620357D01*
X161915704Y-128605632D01*
X161824596Y-128581526D01*
X161814313Y-128576749D01*
X161728056Y-128566043D01*
X161592751Y-128601146D01*
X161406147Y-128683209D01*
X161165995Y-128813384D01*
X160870044Y-128992821D01*
X160516043Y-129222670D01*
X160402297Y-129298858D01*
X160198625Y-129432842D01*
X160009828Y-129551026D01*
X159846344Y-129647467D01*
X159718612Y-129716220D01*
X159637070Y-129751341D01*
X159611814Y-129748949D01*
X159644649Y-129716954D01*
X159733464Y-129652029D01*
X159865812Y-129562756D01*
X160029248Y-129457719D01*
X160081814Y-129424831D01*
X160290181Y-129293212D01*
X160508198Y-129152065D01*
X160709550Y-129018613D01*
X160863557Y-128913156D01*
X161019645Y-128806091D01*
X161169309Y-128708093D01*
X161288414Y-128634801D01*
X161323557Y-128615127D01*
X161408578Y-128564531D01*
X161419583Y-128542093D01*
X161357406Y-128547690D01*
X161222882Y-128581201D01*
X161016847Y-128642502D01*
X160913717Y-128675059D01*
X160693038Y-128743984D01*
X160541399Y-128787890D01*
X160460059Y-128806830D01*
X160450278Y-128800860D01*
X160513315Y-128770037D01*
X160650431Y-128714416D01*
X160770000Y-128668705D01*
X160932894Y-128605792D01*
X161067422Y-128550854D01*
X161156015Y-128511233D01*
X161180815Y-128497015D01*
X161160210Y-128471367D01*
X161079160Y-128426735D01*
X160952647Y-128370834D01*
X160880249Y-128342292D01*
X160676752Y-128261662D01*
X160540768Y-128198587D01*
X160463338Y-128147090D01*
X160435506Y-128101192D01*
X160448312Y-128054915D01*
X160448693Y-128054305D01*
X160483413Y-128020984D01*
X160534390Y-128034405D01*
X160597947Y-128077234D01*
X160685967Y-128127485D01*
X160825515Y-128191720D01*
X160992093Y-128258992D01*
X161063923Y-128285413D01*
X161417847Y-128411530D01*
X161578683Y-128329348D01*
X161693156Y-128280352D01*
X161761968Y-128277508D01*
X161784424Y-128292144D01*
X161806436Y-128341100D01*
X161778530Y-128368568D01*
X161762224Y-128401592D01*
X161819308Y-128441667D01*
X161830747Y-128447026D01*
X161999449Y-128490631D01*
X162181112Y-128467021D01*
X162281284Y-128430460D01*
X162430000Y-128366883D01*
X162340000Y-128305384D01*
X162272380Y-128238385D01*
X162251555Y-128174644D01*
X162282075Y-128136579D01*
X162305102Y-128133470D01*
X162375203Y-128161734D01*
X162410000Y-128193564D01*
X162486189Y-128249252D01*
X162551834Y-128227533D01*
X162599399Y-128131070D01*
X162600694Y-128126179D01*
X162640453Y-128025059D01*
X162684011Y-127983386D01*
X162718177Y-128005662D01*
X162730000Y-128082055D01*
X162720307Y-128179464D01*
X162700000Y-128236478D01*
X162699014Y-128242704D01*
X162734512Y-128206777D01*
X162781610Y-128124406D01*
X162819326Y-128003921D01*
X162826253Y-127967626D01*
X162858721Y-127839453D01*
X162915481Y-127679225D01*
X162971740Y-127548902D01*
X163056114Y-127316461D01*
X163090028Y-127068836D01*
X163074407Y-126788585D01*
X163026020Y-126525434D01*
X162996437Y-126364828D01*
X162980952Y-126217218D01*
X162982726Y-126116894D01*
X162998418Y-126021132D01*
X163022937Y-125871974D01*
X163052064Y-125695077D01*
X163065774Y-125611901D01*
X163091262Y-125448133D01*
X163108789Y-125317116D01*
X163116116Y-125236733D01*
X163114794Y-125220343D01*
X163063884Y-125218364D01*
X162983231Y-125286068D01*
X162871790Y-125424576D01*
X162729225Y-125633908D01*
X162628877Y-125782348D01*
X162541572Y-125899116D01*
X162477325Y-125971598D01*
X162447588Y-125988602D01*
X162439096Y-125938236D01*
X162479245Y-125833577D01*
X162564873Y-125681391D01*
X162657546Y-125539385D01*
X162773843Y-125369116D01*
X162676950Y-125369116D01*
X162578537Y-125382449D01*
X162450543Y-125415755D01*
X162410000Y-125429211D01*
X162293969Y-125469542D01*
X162234603Y-125484593D01*
X162212934Y-125475197D01*
X162209994Y-125442186D01*
X162210000Y-125437994D01*
X162243552Y-125389137D01*
X162324275Y-125343481D01*
X162324721Y-125343312D01*
X162439442Y-125299942D01*
X162341977Y-124923882D01*
X162296974Y-124749155D01*
X162257494Y-124593912D01*
X162229395Y-124481273D01*
X162221329Y-124447665D01*
X162179500Y-124347655D01*
X162109420Y-124240812D01*
X162104073Y-124234260D01*
X162041998Y-124150280D01*
X162010851Y-124090017D01*
X162010000Y-124084024D01*
X162036953Y-124049382D01*
X162101970Y-124061833D01*
X162172892Y-124109751D01*
X162217278Y-124142258D01*
X162243115Y-124126220D01*
X162262768Y-124048420D01*
X162270205Y-124005751D01*
X162279936Y-123894190D01*
X162270320Y-123816396D01*
X162262794Y-123803445D01*
X162186037Y-123748682D01*
X162051050Y-123673674D01*
X161874620Y-123586006D01*
X161673536Y-123493265D01*
X161464586Y-123403035D01*
X161264558Y-123322904D01*
X161090241Y-123260457D01*
X161002444Y-123233948D01*
X160627801Y-123137386D01*
X160310870Y-123066320D01*
X160034286Y-123018581D01*
X159780679Y-122991998D01*
X159532684Y-122984402D01*
X159272933Y-122993623D01*
X159150000Y-123002484D01*
X158824406Y-123031776D01*
X158563289Y-123064321D01*
X158351148Y-123105318D01*
X158172483Y-123159967D01*
X158011793Y-123233467D01*
X157853580Y-123331020D01*
X157682342Y-123457825D01*
X157601799Y-123521871D01*
X157325292Y-123778782D01*
X157089715Y-124075438D01*
X156881928Y-124429144D01*
X156824845Y-124545170D01*
X156746070Y-124731142D01*
X156688597Y-124919126D01*
X156650900Y-125123248D01*
X156631454Y-125357633D01*
X156628734Y-125636405D01*
X156641213Y-125973690D01*
X156651510Y-126150347D01*
X156670795Y-126440489D01*
X156689246Y-126675582D01*
X156709545Y-126880625D01*
X156734376Y-127080617D01*
X156766423Y-127300558D01*
X156793411Y-127472429D01*
X156810651Y-127597779D01*
X156829961Y-127764126D01*
X156845012Y-127913123D01*
X156871000Y-128193564D01*
X156917235Y-128013280D01*
X156947701Y-127875484D01*
X156984655Y-127679850D01*
X157024637Y-127448046D01*
X157064190Y-127201737D01*
X157099856Y-126962593D01*
X157128178Y-126752279D01*
X157145696Y-126592463D01*
X157147415Y-126571009D01*
X157156921Y-126443747D01*
X157164187Y-126350672D01*
X157166790Y-126320615D01*
X157201644Y-126292022D01*
X157215869Y-126290568D01*
X157239329Y-126318932D01*
X157246563Y-126409360D01*
X157238141Y-126569852D01*
X157236829Y-126585709D01*
X157184178Y-127047059D01*
X157103461Y-127539219D01*
X156999072Y-128044964D01*
X156875407Y-128547067D01*
X156736860Y-129028303D01*
X156587827Y-129471447D01*
X156432703Y-129859272D01*
X156363628Y-130007999D01*
X156276962Y-130192355D01*
X156207520Y-130354197D01*
X156161233Y-130478577D01*
X156144033Y-130550548D01*
X156145070Y-130558867D01*
X156198699Y-130600992D01*
X156295726Y-130616448D01*
X156404162Y-130605377D01*
X156492014Y-130567919D01*
X156504285Y-130557287D01*
X156593382Y-130503386D01*
X156672895Y-130512940D01*
X156718958Y-130579420D01*
X156765359Y-130643848D01*
X156825214Y-130649531D01*
X156885373Y-130622101D01*
X156914999Y-130548035D01*
X156922414Y-130487176D01*
X156946247Y-130375390D01*
X156992138Y-130336941D01*
X156992414Y-130336940D01*
X157044113Y-130356788D01*
X157050000Y-130372330D01*
X157083277Y-130412632D01*
X157159651Y-130430262D01*
X157243938Y-130419063D01*
X157264318Y-130409836D01*
X157323928Y-130345984D01*
X157305822Y-130266696D01*
X157248887Y-130205061D01*
X157180975Y-130114027D01*
X157143759Y-130015231D01*
X157120611Y-129936340D01*
X157088489Y-129924984D01*
X157062234Y-129942764D01*
X157002662Y-130012261D01*
X156946335Y-130103659D01*
X156883644Y-130195610D01*
X156831570Y-130209799D01*
X156796920Y-130160271D01*
X156804748Y-130091568D01*
X156871645Y-129994280D01*
X156999558Y-129866757D01*
X157190433Y-129707353D01*
X157446217Y-129514419D01*
X157768858Y-129286306D01*
X158075206Y-129078191D01*
X158610183Y-128758527D01*
X159187942Y-128483506D01*
X159779042Y-128266619D01*
X159966065Y-128211734D01*
X160150788Y-128167918D01*
X160264539Y-128157650D01*
X160303062Y-128170591D01*
X160320842Y-128190745D01*
X160320234Y-128207997D01*
X160289884Y-128227216D01*
X160218438Y-128253268D01*
X160094543Y-128291019D01*
X159906845Y-128345336D01*
X159872133Y-128355315D01*
X159366077Y-128531831D01*
X158832724Y-128777186D01*
X158278948Y-129087769D01*
X157711620Y-129459968D01*
X157550553Y-129575260D01*
X157390487Y-129692709D01*
X157287040Y-129773156D01*
X157232062Y-129826627D01*
X157217400Y-129863148D01*
X157234902Y-129892745D01*
X157269805Y-129920556D01*
X157320623Y-129972269D01*
X157302288Y-130008769D01*
X157299377Y-130010631D01*
X157280377Y-130048253D01*
X157323119Y-130110190D01*
X157349571Y-130136222D01*
X157432842Y-130254837D01*
X157444285Y-130370731D01*
X157390789Y-130466893D01*
X157279244Y-130526315D01*
X157187142Y-130537255D01*
X157095748Y-130547512D01*
X157050925Y-130572668D01*
X157050000Y-130577318D01*
X157016883Y-130648871D01*
X156937661Y-130720809D01*
X156842526Y-130769425D01*
X156794897Y-130777634D01*
X156700156Y-130754681D01*
X156651860Y-130719784D01*
X156595007Y-130683144D01*
X156512460Y-130703681D01*
X156510065Y-130704768D01*
X156402808Y-130727097D01*
X156258980Y-130723536D01*
X156233102Y-130720099D01*
X156049999Y-130692598D01*
X156050000Y-130510938D01*
X156072881Y-130338680D01*
X156124933Y-130222935D01*
X156210289Y-130083661D01*
X156307285Y-129897774D01*
X156401847Y-129694537D01*
X156479899Y-129503211D01*
X156503691Y-129435520D01*
X156597588Y-129137902D01*
X156674233Y-128869795D01*
X156731363Y-128640891D01*
X156766713Y-128460880D01*
X156778019Y-128339452D01*
X156770337Y-128294353D01*
X156747296Y-128212182D01*
X156732694Y-128085038D01*
X156730000Y-128002408D01*
X156723765Y-127864168D01*
X156707097Y-127678565D01*
X156683051Y-127477216D01*
X156671105Y-127393007D01*
X156635113Y-127115977D01*
X156603830Y-126803980D01*
X156578077Y-126473561D01*
X156558672Y-126141266D01*
X156546434Y-125823640D01*
X156542185Y-125537230D01*
X156546742Y-125298580D01*
X156559330Y-125136109D01*
X156638610Y-124782842D01*
X156781283Y-124422290D01*
X156976223Y-124076315D01*
X157212303Y-123766780D01*
X157307277Y-123666435D01*
X157540070Y-123446883D01*
X157744965Y-123282408D01*
X157939791Y-123162344D01*
X158142379Y-123076023D01*
X158370561Y-123012778D01*
X158416384Y-123002884D01*
X158607314Y-122970262D01*
X158846886Y-122939828D01*
X159103752Y-122915090D01*
X159334711Y-122900085D01*
X159580135Y-122891139D01*
X159773158Y-122891181D01*
X159941056Y-122901985D01*
X160111102Y-122925326D01*
X160310571Y-122962976D01*
X160314711Y-122963818D01*
X160659291Y-123037658D01*
X160945501Y-123108546D01*
X161194383Y-123183224D01*
X161426981Y-123268433D01*
X161664336Y-123370914D01*
X161828963Y-123448925D01*
X162005336Y-123534072D01*
X162152840Y-123604081D01*
X162258210Y-123652749D01*
X162308182Y-123673870D01*
X162310458Y-123674150D01*
X162320061Y-123634506D01*
X162343988Y-123533569D01*
X162378287Y-123388053D01*
X162407011Y-123265804D01*
X162453683Y-123070098D01*
X162500478Y-122879196D01*
X162540186Y-122722299D01*
X162555365Y-122664858D01*
X162604233Y-122456497D01*
X162654039Y-122195272D01*
X162701721Y-121902945D01*
X162744219Y-121601282D01*
X162778471Y-121312046D01*
X162801417Y-121057002D01*
X162809995Y-120857915D01*
X162810000Y-120854424D01*
X162807139Y-120662385D01*
X162796831Y-120533131D01*
X162776480Y-120449467D01*
X162743496Y-120394200D01*
X162740000Y-120390231D01*
X162702992Y-120329805D01*
X162680749Y-120236968D01*
X162670124Y-120093527D01*
X162668007Y-119973838D01*
X162672175Y-119780241D01*
X162686888Y-119659690D01*
X162711415Y-119613996D01*
X162745024Y-119644968D01*
X162773485Y-119713014D01*
X162833990Y-119810725D01*
X162902450Y-119851088D01*
X163003681Y-119879012D01*
X163053171Y-119897014D01*
X163100488Y-119895376D01*
X163139664Y-119835181D01*
X163165021Y-119761128D01*
X163214540Y-119646422D01*
X163277539Y-119562285D01*
X163294739Y-119549135D01*
X163366287Y-119478537D01*
X163428507Y-119375081D01*
X163430847Y-119369668D01*
X163483426Y-119277198D01*
X163530768Y-119240136D01*
X163558598Y-119261251D01*
X163552640Y-119343307D01*
X163551924Y-119346206D01*
X163546917Y-119434331D01*
X163595299Y-119506684D01*
X163631943Y-119538216D01*
X163701568Y-119610190D01*
X163733620Y-119700073D01*
X163741240Y-119812073D01*
X163743769Y-120000662D01*
X163900712Y-120000662D01*
X164037402Y-119982620D01*
X164161980Y-119938587D01*
X164172597Y-119932658D01*
X164267516Y-119892221D01*
X164317107Y-119898754D01*
X164309959Y-119942068D01*
X164249402Y-120001220D01*
X164172495Y-120092117D01*
X164162822Y-120178456D01*
X164154312Y-120252587D01*
X164104141Y-120340788D01*
X164002640Y-120458923D01*
X163972822Y-120490132D01*
X163858641Y-120616973D01*
X163795411Y-120713843D01*
X163771351Y-120800496D01*
X163770000Y-120830232D01*
X163763144Y-120937613D01*
X163745252Y-121089230D01*
X163722555Y-121237799D01*
X163704836Y-121371827D01*
X163696102Y-121524726D01*
X163696350Y-121711918D01*
X163705578Y-121948831D01*
X163722402Y-122230104D01*
X163738810Y-122468166D01*
X163754951Y-122684313D01*
X163769597Y-122863415D01*
X163781522Y-122990340D01*
X163788518Y-123045457D01*
X163807499Y-123157250D01*
X163826740Y-123285600D01*
X163826773Y-123285836D01*
X163871836Y-123591941D01*
X163918557Y-123875075D01*
X163964064Y-124119395D01*
X164005487Y-124309057D01*
X164026449Y-124387571D01*
X164062062Y-124527376D01*
X164104909Y-124727429D01*
X164151504Y-124968571D01*
X164198360Y-125231647D01*
X164241989Y-125497500D01*
X164278905Y-125746973D01*
X164292346Y-125848380D01*
X164306188Y-125998972D01*
X164318047Y-126205913D01*
X164326901Y-126445434D01*
X164331727Y-126693763D01*
X164332273Y-126777326D01*
X164325299Y-127124375D01*
X164300001Y-127447708D01*
X164252880Y-127766522D01*
X164180437Y-128100016D01*
X164079173Y-128467386D01*
X163950083Y-128874314D01*
X163888129Y-129065650D01*
X163838240Y-129228965D01*
X163804635Y-129349707D01*
X163791534Y-129413323D01*
X163792135Y-129418950D01*
X163833010Y-129447435D01*
X163926306Y-129499411D01*
X164052233Y-129563879D01*
X164058515Y-129566979D01*
X164356398Y-129685128D01*
X164722695Y-129781560D01*
X165148327Y-129854471D01*
X165624217Y-129902058D01*
X165795425Y-129912127D01*
X166083723Y-129930951D01*
X166322067Y-129959224D01*
X166540388Y-130002083D01*
X166768615Y-130064666D01*
X166870000Y-130096571D01*
X167045569Y-130145857D01*
X167248054Y-130192024D01*
X167384111Y-130216913D01*
X167593535Y-130263962D01*
X167842667Y-130341862D01*
X168102778Y-130439970D01*
X168345140Y-130547639D01*
X168504542Y-130632092D01*
X168737316Y-130800483D01*
X168909064Y-131002286D01*
X168995354Y-131158233D01*
X169074315Y-131404585D01*
X169075847Y-131635993D01*
X169001792Y-131848304D01*
X168853993Y-132037367D01*
X168634290Y-132199032D01*
X168504011Y-132265599D01*
X168374422Y-132314931D01*
X168211124Y-132363944D01*
X168037095Y-132407322D01*
X167875313Y-132439748D01*
X167748755Y-132455903D01*
X167690000Y-132453966D01*
X167644415Y-132447482D01*
X167536771Y-132433645D01*
X167384435Y-132414655D01*
X167248478Y-132398012D01*
X167032530Y-132360868D01*
X166763288Y-132297951D01*
X166460813Y-132215460D01*
X166145166Y-132119596D01*
X165836408Y-132016559D01*
X165554601Y-131912549D01*
X165319804Y-131813764D01*
X165250151Y-131780426D01*
X165103617Y-131714093D01*
X164916825Y-131639120D01*
X164726120Y-131569966D01*
X164694473Y-131559348D01*
X164544816Y-131503507D01*
X164387760Y-131430642D01*
X164213064Y-131334615D01*
X164010485Y-131209286D01*
X163769781Y-131048517D01*
X163480710Y-130846170D01*
X163356680Y-130757551D01*
X163189430Y-130630396D01*
X163031294Y-130497500D01*
X162896696Y-130372211D01*
X162800059Y-130267877D01*
X162757539Y-130203119D01*
X162739021Y-130121651D01*
X162768742Y-130103813D01*
X162846440Y-130149516D01*
X162971853Y-130258672D01*
X163000141Y-130285695D01*
X163162003Y-130431281D01*
X163374476Y-130606394D01*
X163620526Y-130797783D01*
X163883119Y-130992198D01*
X164145075Y-131176290D01*
X164273546Y-131250974D01*
X164447685Y-131335271D01*
X164636850Y-131414741D01*
X164705075Y-131440231D01*
X164914873Y-131518477D01*
X165143825Y-131608501D01*
X165349481Y-131693523D01*
X165390000Y-131711031D01*
X165750369Y-131856613D01*
X166134566Y-131990822D01*
X166520728Y-132107220D01*
X166886995Y-132199367D01*
X167211504Y-132260822D01*
X167293875Y-132271888D01*
X167593095Y-132302386D01*
X167832819Y-132312403D01*
X168031483Y-132299553D01*
X168207526Y-132261447D01*
X168379385Y-132195697D01*
X168548474Y-132109388D01*
X168757342Y-131957203D01*
X168894423Y-131776979D01*
X168959133Y-131577207D01*
X168950886Y-131366379D01*
X168869099Y-131152985D01*
X168713188Y-130945515D01*
X168633806Y-130869485D01*
X168467598Y-130749983D01*
X168244212Y-130627395D01*
X167985523Y-130510906D01*
X167713409Y-130409702D01*
X167449748Y-130332968D01*
X167270000Y-130296894D01*
X167097374Y-130266305D01*
X166937283Y-130229929D01*
X166821060Y-130194998D01*
X166810475Y-130190803D01*
X166685153Y-130143743D01*
X166553615Y-130106874D01*
X166400894Y-130077861D01*
X166212026Y-130054369D01*
X165972046Y-130034065D01*
X165690000Y-130016003D01*
X165260361Y-129982837D01*
X164892954Y-129935090D01*
X164570728Y-129868908D01*
X164276636Y-129780437D01*
X163993628Y-129665823D01*
X163861000Y-129602527D01*
X163702970Y-129516078D01*
X163614604Y-129444555D01*
X163589435Y-129378268D01*
X163620994Y-129307530D01*
X163645046Y-129279056D01*
X163707410Y-129181370D01*
X163779971Y-129019019D01*
X163858522Y-128806154D01*
X163938853Y-128556926D01*
X164016757Y-128285486D01*
X164088026Y-128005986D01*
X164148450Y-127732576D01*
X164193821Y-127479408D01*
X164206132Y-127392303D01*
X164230461Y-127075752D01*
X164232081Y-126700331D01*
X164212626Y-126283494D01*
X164173728Y-125842697D01*
X164117020Y-125395396D01*
X164044134Y-124959047D01*
X163956703Y-124551105D01*
X163930703Y-124447665D01*
X163890612Y-124274372D01*
X163844115Y-124042331D01*
X163794860Y-123772283D01*
X163746494Y-123484972D01*
X163702665Y-123201140D01*
X163670051Y-122965331D01*
X163634592Y-122621465D01*
X163611528Y-122250723D01*
X163601012Y-121873394D01*
X163603196Y-121509772D01*
X163618232Y-121180146D01*
X163646273Y-120904807D01*
X163654178Y-120853680D01*
X163656412Y-120789963D01*
X163654736Y-120746940D01*
X163640982Y-120696351D01*
X163597656Y-120715557D01*
X163590000Y-120721798D01*
X163539716Y-120747721D01*
X163530000Y-120727961D01*
X163500904Y-120701646D01*
X163470337Y-120707180D01*
X163407307Y-120696406D01*
X163386057Y-120665860D01*
X163336214Y-120607888D01*
X163272240Y-120617122D01*
X163215431Y-120688928D01*
X163209009Y-120704374D01*
X163176977Y-120803454D01*
X163188868Y-120858046D01*
X163257383Y-120897432D01*
X163300000Y-120914156D01*
X163381125Y-120951627D01*
X163393998Y-120981451D01*
X163370000Y-121002452D01*
X163257764Y-121039892D01*
X163163734Y-120999772D01*
X163116248Y-120934669D01*
X163084114Y-120854338D01*
X163084483Y-120773906D01*
X163117674Y-120657341D01*
X163118731Y-120654227D01*
X163165690Y-120542612D01*
X163216847Y-120491433D01*
X163271399Y-120481419D01*
X163353549Y-120495256D01*
X163387679Y-120517721D01*
X163439759Y-120539460D01*
X163482834Y-120534967D01*
X163566495Y-120546758D01*
X163606501Y-120577355D01*
X163640451Y-120603192D01*
X163684551Y-120593561D01*
X163753833Y-120540433D01*
X163853707Y-120445273D01*
X163952908Y-120337718D01*
X164023484Y-120242585D01*
X164050000Y-120181089D01*
X164038305Y-120138514D01*
X163989989Y-120123018D01*
X163885202Y-120129077D01*
X163869368Y-120130823D01*
X163756614Y-120135820D01*
X163680862Y-120124834D01*
X163666542Y-120115248D01*
X163650763Y-120057275D01*
X163634789Y-119948563D01*
X163627123Y-119871656D01*
X163606860Y-119719529D01*
X163571343Y-119635045D01*
X163511181Y-119605936D01*
X163431513Y-119616102D01*
X163332150Y-119679736D01*
X163268558Y-119801668D01*
X163250000Y-119938270D01*
X163224906Y-120033824D01*
X163188827Y-120081763D01*
X163135204Y-120107698D01*
X163075793Y-120080891D01*
X163032395Y-120042980D01*
X162926404Y-119972577D01*
X162843497Y-119976296D01*
X162791142Y-120051781D01*
X162778059Y-120123232D01*
X162788317Y-120251881D01*
X162848059Y-120339440D01*
X162889144Y-120387666D01*
X162913896Y-120453774D01*
X162926200Y-120557356D01*
X162929937Y-120718001D01*
X162930000Y-120752833D01*
X162920281Y-120973135D01*
X162892843Y-121254302D01*
X162850256Y-121579693D01*
X162795094Y-121932667D01*
X162729931Y-122296584D01*
X162657338Y-122654804D01*
X162591008Y-122945299D01*
X162539956Y-123159143D01*
X162494258Y-123356603D01*
X162458133Y-123519010D01*
X162435803Y-123627694D01*
X162432525Y-123646404D01*
X162390501Y-123914677D01*
X162361948Y-124118012D01*
X162346142Y-124270328D01*
X162342360Y-124385540D01*
X162349877Y-124477565D01*
X162367969Y-124560322D01*
X162382486Y-124607918D01*
X162426519Y-124766252D01*
X162461902Y-124932513D01*
X162467541Y-124967439D01*
X162512286Y-125132897D01*
X162585749Y-125243906D01*
X162679748Y-125288621D01*
X162689635Y-125288990D01*
X162756446Y-125265536D01*
X162858432Y-125205011D01*
X162940435Y-125145751D01*
X163050584Y-125065399D01*
X163123576Y-125031248D01*
X163181185Y-125035313D01*
X163208119Y-125047604D01*
X163264587Y-125094490D01*
X163270549Y-125127847D01*
X163256438Y-125179846D01*
X163235040Y-125293385D01*
X163209504Y-125450563D01*
X163188198Y-125595808D01*
X163160729Y-125774684D01*
X163133332Y-125923834D01*
X163109549Y-126025496D01*
X163095474Y-126060731D01*
X163088748Y-126111677D01*
X163097238Y-126221802D01*
X163119042Y-126372017D01*
X163135496Y-126462133D01*
X163189743Y-126810480D01*
X163205802Y-127101138D01*
X163183590Y-127329255D01*
X163152041Y-127433652D01*
X163116474Y-127532733D01*
X163120779Y-127564220D01*
X163165282Y-127527843D01*
X163250308Y-127423330D01*
X163376183Y-127250410D01*
X163382551Y-127241387D01*
X163511602Y-127058425D01*
X163651560Y-126860121D01*
X163777889Y-126681240D01*
X163811869Y-126633155D01*
X163903574Y-126501110D01*
X163976463Y-126391867D01*
X164018614Y-126323454D01*
X164023841Y-126312650D01*
X164057515Y-126291227D01*
X164068817Y-126298207D01*
X164059291Y-126340029D01*
X164011661Y-126434013D01*
X163933523Y-126566552D01*
X163832470Y-126724039D01*
X163824293Y-126736306D01*
X163682752Y-126949517D01*
X163585184Y-127100078D01*
X163529826Y-127191078D01*
X163514917Y-127225608D01*
X163538694Y-127206759D01*
X163587282Y-127151924D01*
X163650586Y-127087169D01*
X163686639Y-127068895D01*
X163689801Y-127076080D01*
X163666233Y-127130022D01*
X163602910Y-127230035D01*
X163511246Y-127360598D01*
X163402659Y-127506191D01*
X163288563Y-127651292D01*
X163180374Y-127780383D01*
X163133064Y-127832997D01*
X163029426Y-127963058D01*
X162938795Y-128107340D01*
X162909955Y-128165951D01*
X162851042Y-128277835D01*
X162789281Y-128358205D01*
X162767188Y-128375355D01*
X162727350Y-128405370D01*
X162719584Y-128451684D01*
X162742726Y-128539180D01*
X162757464Y-128582834D01*
X162795008Y-128775317D01*
X162782793Y-128965472D01*
X162724434Y-129127289D01*
X162672167Y-129196613D01*
X162523133Y-129311747D01*
X162341975Y-129402994D01*
X162161774Y-129455535D01*
X162078408Y-129462625D01*
X161934252Y-129437045D01*
X161828676Y-129373023D01*
X161820343Y-129358052D01*
X162130000Y-129358052D01*
X162162405Y-129355587D01*
X162243611Y-129327269D01*
X162280000Y-129312231D01*
X162387922Y-129266163D01*
X162468208Y-129232196D01*
X162480000Y-129227280D01*
X162526453Y-129175555D01*
X162530000Y-129155079D01*
X162562087Y-129096635D01*
X162587793Y-129081344D01*
X162645330Y-129019910D01*
X162673247Y-128905574D01*
X162669668Y-128760588D01*
X162632722Y-128607200D01*
X162628640Y-128596206D01*
X162571044Y-128465965D01*
X162529154Y-128409511D01*
X162506092Y-128421504D01*
X162504980Y-128496603D01*
X162528940Y-128629465D01*
X162553702Y-128724400D01*
X162561124Y-128797783D01*
X162534375Y-128813313D01*
X162488666Y-128776174D01*
X162439209Y-128691550D01*
X162436148Y-128684337D01*
X162382067Y-128554132D01*
X162352075Y-128765952D01*
X162313838Y-128932537D01*
X162252920Y-129102340D01*
X162226042Y-129158687D01*
X162171345Y-129265026D01*
X162136562Y-129339005D01*
X162130000Y-129358052D01*
X161820343Y-129358052D01*
X161778621Y-129283093D01*
X161778239Y-129240553D01*
G37*
G36*
X160257807Y-126022386D02*
G01*
X160383233Y-126075809D01*
X160535458Y-126167636D01*
X160706939Y-126270482D01*
X160900440Y-126373760D01*
X161033739Y-126436961D01*
X161167703Y-126504438D01*
X161258120Y-126567658D01*
X161296745Y-126618065D01*
X161275330Y-126647105D01*
X161240000Y-126650940D01*
X161175777Y-126631780D01*
X161060526Y-126580606D01*
X160911902Y-126506487D01*
X160747558Y-126418494D01*
X160585148Y-126325696D01*
X160472168Y-126256451D01*
X160312686Y-126165135D01*
X160208605Y-126131222D01*
X160158437Y-126155777D01*
X160160697Y-126239867D01*
X160213897Y-126384557D01*
X160233632Y-126427472D01*
X160324242Y-126589956D01*
X160438311Y-126756851D01*
X160499916Y-126833194D01*
X160597080Y-126957617D01*
X160629056Y-127035592D01*
X160621106Y-127056668D01*
X160570062Y-127053560D01*
X160481248Y-126979819D01*
X160424234Y-126918234D01*
X160278500Y-126730346D01*
X160165477Y-126540627D01*
X160090246Y-126362463D01*
X160057883Y-126209243D01*
X160073468Y-126094355D01*
X160098000Y-126058202D01*
X160166944Y-126017571D01*
X160257807Y-126022386D01*
G37*
G36*
X161875502Y-127692597D02*
G01*
X161921451Y-127718565D01*
X161915678Y-127762988D01*
X161910000Y-127772902D01*
X161854702Y-127799071D01*
X161747249Y-127812174D01*
X161614279Y-127812986D01*
X161482433Y-127802282D01*
X161378353Y-127780836D01*
X161332686Y-127756113D01*
X161319850Y-127726761D01*
X161348694Y-127707631D01*
X161431768Y-127695324D01*
X161581624Y-127686445D01*
X161591730Y-127686003D01*
X161768654Y-127682578D01*
X161875502Y-127692597D01*
G37*
G36*
X157945981Y-129439478D02*
G01*
X157954409Y-129527035D01*
X157941623Y-129670802D01*
X157911205Y-129850805D01*
X157866733Y-130047074D01*
X157811789Y-130239637D01*
X157791854Y-130299296D01*
X157701751Y-130513686D01*
X157578967Y-130725009D01*
X157414610Y-130945356D01*
X157199791Y-131186816D01*
X156965798Y-131422628D01*
X156805504Y-131580334D01*
X156695002Y-131695715D01*
X156625268Y-131780763D01*
X156587280Y-131847469D01*
X156572013Y-131907822D01*
X156570000Y-131948604D01*
X156581755Y-132051852D01*
X156631307Y-132110753D01*
X156690239Y-132139878D01*
X156824854Y-132169683D01*
X156984088Y-132151673D01*
X157183904Y-132083551D01*
X157235156Y-132061496D01*
X157413118Y-131982650D01*
X157328466Y-131897865D01*
X157251982Y-131843482D01*
X157190665Y-131833506D01*
X157126885Y-131822294D01*
X157066934Y-131775819D01*
X157026271Y-131722854D01*
X157027300Y-131677847D01*
X157076140Y-131614176D01*
X157113176Y-131574629D01*
X157228195Y-131470652D01*
X157344105Y-131393724D01*
X157441046Y-131355162D01*
X157491174Y-131359276D01*
X157529109Y-131411062D01*
X157499788Y-131452282D01*
X157463775Y-131458706D01*
X157393415Y-131481454D01*
X157299224Y-131537059D01*
X157207300Y-131606569D01*
X157143741Y-131671030D01*
X157130000Y-131701124D01*
X157160888Y-131733290D01*
X157229883Y-131735314D01*
X157301482Y-131708432D01*
X157318514Y-131694563D01*
X157380314Y-131668098D01*
X157425161Y-131703067D01*
X157432058Y-131780877D01*
X157429232Y-131792598D01*
X157423590Y-131835499D01*
X157450206Y-131825564D01*
X157517958Y-131758671D01*
X157530044Y-131745797D01*
X157608792Y-131649013D01*
X157636347Y-131569676D01*
X157628448Y-131491695D01*
X157616959Y-131409009D01*
X157639855Y-131382717D01*
X157676008Y-131386340D01*
X157727990Y-131432025D01*
X157745210Y-131522498D01*
X157728308Y-131630694D01*
X157677922Y-131729548D01*
X157667616Y-131741786D01*
X157625709Y-131792740D01*
X157623138Y-131811649D01*
X157665560Y-131795760D01*
X157758632Y-131742319D01*
X157908011Y-131648575D01*
X158057418Y-131552099D01*
X158240359Y-131437322D01*
X158404369Y-131346056D01*
X158572363Y-131267832D01*
X158767261Y-131192183D01*
X159011979Y-131108643D01*
X159069243Y-131089961D01*
X159429881Y-130976760D01*
X159816180Y-130862217D01*
X160207114Y-130752131D01*
X160581654Y-130652296D01*
X160918772Y-130568510D01*
X161150000Y-130516382D01*
X161329592Y-130475807D01*
X161504569Y-130431788D01*
X161639773Y-130393218D01*
X161650000Y-130389922D01*
X161958920Y-130290095D01*
X162200041Y-130215811D01*
X162380830Y-130165450D01*
X162508750Y-130137393D01*
X162591269Y-130130023D01*
X162635850Y-130141721D01*
X162649959Y-130170868D01*
X162650000Y-130173128D01*
X162613994Y-130196636D01*
X162515670Y-130237625D01*
X162369570Y-130291340D01*
X162190235Y-130353029D01*
X161992204Y-130417939D01*
X161790021Y-130481315D01*
X161598224Y-130538406D01*
X161431356Y-130584458D01*
X161303958Y-130614718D01*
X161291751Y-130617112D01*
X161160199Y-130644384D01*
X160977685Y-130685288D01*
X160764059Y-130735043D01*
X160539175Y-130788867D01*
X160322884Y-130841980D01*
X160135036Y-130889599D01*
X159995485Y-130926944D01*
X159950000Y-130940277D01*
X159574752Y-131057751D01*
X159265362Y-131156715D01*
X159011040Y-131241619D01*
X158801000Y-131316911D01*
X158624453Y-131387042D01*
X158470612Y-131456463D01*
X158328687Y-131529622D01*
X158187892Y-131610971D01*
X158037439Y-131704959D01*
X157934155Y-131771805D01*
X157681793Y-131934622D01*
X157483128Y-132057683D01*
X157326211Y-132147030D01*
X157199093Y-132208700D01*
X157089823Y-132248735D01*
X156986452Y-132273174D01*
X156923293Y-132282736D01*
X156761123Y-132283242D01*
X156617756Y-132231123D01*
X156610000Y-132226859D01*
X156523630Y-132171292D01*
X156483275Y-132111474D01*
X156472411Y-132015666D01*
X156472582Y-131962930D01*
X156480755Y-131852400D01*
X156510818Y-131765757D01*
X156576582Y-131674905D01*
X156656954Y-131587815D01*
X156755195Y-131478980D01*
X156830297Y-131383650D01*
X156863116Y-131328501D01*
X156909740Y-131269171D01*
X156942942Y-131258391D01*
X156999563Y-131229228D01*
X157090773Y-131151747D01*
X157202147Y-131040960D01*
X157319265Y-130911877D01*
X157427703Y-130779511D01*
X157501086Y-130677449D01*
X157575229Y-130539074D01*
X157653404Y-130351460D01*
X157727790Y-130138879D01*
X157790565Y-129925606D01*
X157833908Y-129735915D01*
X157850000Y-129594524D01*
X157859675Y-129474841D01*
X157884214Y-129404207D01*
X157916888Y-129393491D01*
X157945981Y-129439478D01*
G37*
G36*
X162967929Y-127080235D02*
G01*
X162970000Y-127107253D01*
X162939370Y-127167226D01*
X162870000Y-127228366D01*
X162798108Y-127292965D01*
X162770000Y-127350799D01*
X162747678Y-127415794D01*
X162700224Y-127437636D01*
X162675579Y-127424599D01*
X162648844Y-127347964D01*
X162687300Y-127252147D01*
X162783775Y-127153963D01*
X162888078Y-127079627D01*
X162945383Y-127056075D01*
X162967929Y-127080235D01*
G37*
G36*
X160367125Y-128821639D02*
G01*
X160338049Y-128849335D01*
X160330000Y-128854605D01*
X160256712Y-128889996D01*
X160221733Y-128884114D01*
X160230000Y-128854605D01*
X160287084Y-128819746D01*
X160322360Y-128815156D01*
X160367125Y-128821639D01*
G37*
G36*
X160159166Y-128910527D02*
G01*
X160147237Y-128928736D01*
X160106666Y-128931569D01*
X160063985Y-128921784D01*
X160082500Y-128907364D01*
X160145015Y-128902588D01*
X160159166Y-128910527D01*
G37*
%TD*%
M02*
