%TF.GenerationSoftware,KiCad,Pcbnew,(5.99.0-12635-ga738257c43)*%
%TF.CreationDate,2021-10-13T00:21:36+02:00*%
%TF.ProjectId,plate,706c6174-652e-46b6-9963-61645f706362,rev?*%
%TF.SameCoordinates,Original*%
%TF.FileFunction,Profile,NP*%
%FSLAX46Y46*%
G04 Gerber Fmt 4.6, Leading zero omitted, Abs format (unit mm)*
G04 Created by KiCad (PCBNEW (5.99.0-12635-ga738257c43)) date 2021-10-13 00:21:36*
%MOMM*%
%LPD*%
G01*
G04 APERTURE LIST*
%TA.AperFunction,Profile*%
%ADD10C,0.150000*%
%TD*%
G04 APERTURE END LIST*
D10*
X193138000Y-102684000D02*
X193138000Y-83850000D01*
X190669000Y-102684000D02*
X190664405Y-83850000D01*
X193138000Y-104184000D02*
X190669000Y-104184000D01*
X193138000Y-102684000D02*
X190669000Y-102684000D01*
X193138000Y-115382000D02*
X193138000Y-104184000D01*
X190039849Y-62307342D02*
G75*
G02*
X190664405Y-63059258I-170444J-776916D01*
G01*
X193138000Y-83850000D02*
X190667000Y-83850000D01*
X193138000Y-76817000D02*
X212322000Y-76806000D01*
X211234000Y-117980000D02*
X211231003Y-128040862D01*
X190669000Y-82300000D02*
X190664405Y-63059258D01*
X190669000Y-118000000D02*
X190669000Y-104184000D01*
X193138000Y-115382000D02*
X212322000Y-115371000D01*
X88127953Y-83292666D02*
X105361412Y-136251738D01*
X193138000Y-82300000D02*
X193138000Y-76817000D01*
X94799583Y-69437227D02*
G75*
G02*
X190039849Y-62307342I60686117J-170969132D01*
G01*
X211231003Y-128040862D02*
G75*
G02*
X206239908Y-142606113I-22262260J-509138D01*
G01*
X88127952Y-83292666D02*
G75*
G02*
X94799583Y-69437227I11498599J2997200D01*
G01*
X193138000Y-82300000D02*
X190669000Y-82300000D01*
X165233781Y-135161725D02*
G75*
G03*
X106709135Y-136975628I-23544781J-185380556D01*
G01*
X201163168Y-144032517D02*
G75*
G03*
X165233781Y-135161726I-65974168J-190017483D01*
G01*
X212322000Y-115371000D02*
X212322000Y-76806000D01*
X206239908Y-142606113D02*
G75*
G02*
X201163167Y-144032518I-3544412J2867418D01*
G01*
X106709135Y-136975629D02*
G75*
G02*
X105361412Y-136251738I-248345J1154163D01*
G01*
X190669000Y-118000000D02*
X211234000Y-117980000D01*
%TO.C,SW9*%
X132825088Y-99487665D02*
X130876665Y-85623912D01*
X118961335Y-101436088D02*
X117012912Y-87572335D01*
X117012912Y-87572335D02*
X130876665Y-85623912D01*
X118961335Y-101436088D02*
X132825088Y-99487665D01*
%TO.C,SW2*%
X96924723Y-102235515D02*
X92598485Y-88920723D01*
X96924723Y-102235515D02*
X110239515Y-97909277D01*
X110239515Y-97909277D02*
X105913277Y-84594485D01*
X92598485Y-88920723D02*
X105913277Y-84594485D01*
%TO.C,SW18*%
X188594000Y-116385000D02*
X188594000Y-102385000D01*
X174594000Y-116385000D02*
X188594000Y-116385000D01*
X174594000Y-116385000D02*
X174594000Y-102385000D01*
X174594000Y-102385000D02*
X188594000Y-102385000D01*
%TO.C,SW8*%
X97853485Y-105090723D02*
X111168277Y-100764485D01*
X102179723Y-118405515D02*
X97853485Y-105090723D01*
X115494515Y-114079277D02*
X111168277Y-100764485D01*
X102179723Y-118405515D02*
X115494515Y-114079277D01*
%TO.C,SW6*%
X174594000Y-68385000D02*
X188594000Y-68385000D01*
X174594000Y-82385000D02*
X174594000Y-68385000D01*
X174594000Y-82385000D02*
X188594000Y-82385000D01*
X188594000Y-82385000D02*
X188594000Y-68385000D01*
%TO.C,SW4*%
X137361561Y-76387032D02*
X136872968Y-62395561D01*
X137361561Y-76387032D02*
X151353032Y-75898439D01*
X136872968Y-62395561D02*
X150864439Y-61906968D01*
X151353032Y-75898439D02*
X150864439Y-61906968D01*
%TO.C,SW5*%
X156594000Y-80005000D02*
X156594000Y-66005000D01*
X156594000Y-66005000D02*
X170594000Y-66005000D01*
X170594000Y-80005000D02*
X170594000Y-66005000D01*
X156594000Y-80005000D02*
X170594000Y-80005000D01*
%TO.C,SW11*%
X156594000Y-97005000D02*
X170594000Y-97005000D01*
X156594000Y-97005000D02*
X156594000Y-83005000D01*
X156594000Y-83005000D02*
X170594000Y-83005000D01*
X170594000Y-97005000D02*
X170594000Y-83005000D01*
%TO.C,SW10*%
X137466968Y-79393561D02*
X151458439Y-78904968D01*
X137955561Y-93385032D02*
X151947032Y-92896439D01*
X137955561Y-93385032D02*
X137466968Y-79393561D01*
X151947032Y-92896439D02*
X151458439Y-78904968D01*
%TO.C,SW3*%
X116596335Y-84601088D02*
X114647912Y-70737335D01*
X116596335Y-84601088D02*
X130460088Y-82652665D01*
X130460088Y-82652665D02*
X128511665Y-68788912D01*
X114647912Y-70737335D02*
X128511665Y-68788912D01*
%TO.C,SW16*%
X138545561Y-110375032D02*
X152537032Y-109886439D01*
X152537032Y-109886439D02*
X152048439Y-95894968D01*
X138056968Y-96383561D02*
X152048439Y-95894968D01*
X138545561Y-110375032D02*
X138056968Y-96383561D01*
%TO.C,SW15*%
X135190088Y-116322665D02*
X133241665Y-102458912D01*
X121326335Y-118271088D02*
X135190088Y-116322665D01*
X119377912Y-104407335D02*
X133241665Y-102458912D01*
X121326335Y-118271088D02*
X119377912Y-104407335D01*
%TO.C,SW14*%
X107434723Y-134575515D02*
X120749515Y-130249277D01*
X120749515Y-130249277D02*
X116423277Y-116934485D01*
X103108485Y-121260723D02*
X116423277Y-116934485D01*
X107434723Y-134575515D02*
X103108485Y-121260723D01*
%TO.C,SW17*%
X170594000Y-114010000D02*
X170594000Y-100010000D01*
X156594000Y-100010000D02*
X170594000Y-100010000D01*
X156594000Y-114010000D02*
X156594000Y-100010000D01*
X156594000Y-114010000D02*
X170594000Y-114010000D01*
%TO.C,SW20*%
X173550147Y-120084306D02*
X187485694Y-121426147D01*
X173550147Y-120084306D02*
X172208306Y-134019853D01*
X187485694Y-121426147D02*
X186143853Y-135361694D01*
X172208306Y-134019853D02*
X186143853Y-135361694D01*
%TO.C,SW21*%
X195436513Y-123303361D02*
X190419361Y-136373487D01*
X195436513Y-123303361D02*
X208506639Y-128320513D01*
X208506639Y-128320513D02*
X203489487Y-141390639D01*
X190419361Y-136373487D02*
X203489487Y-141390639D01*
%TO.C,SW12*%
X188594000Y-99385000D02*
X188594000Y-85385000D01*
X188594000Y-85385000D02*
X174594000Y-85385000D01*
X188594000Y-99385000D02*
X174594000Y-99385000D01*
X174594000Y-99385000D02*
X174594000Y-85385000D01*
%TD*%
M02*
