G04 #@! TF.GenerationSoftware,KiCad,Pcbnew,(5.1.4-0-10_14)*
G04 #@! TF.CreationDate,2021-08-26T22:39:10+02:00*
G04 #@! TF.ProjectId,lory,6c6f7279-2e6b-4696-9361-645f70636258,2.1*
G04 #@! TF.SameCoordinates,Original*
G04 #@! TF.FileFunction,Paste,Bot*
G04 #@! TF.FilePolarity,Positive*
%FSLAX46Y46*%
G04 Gerber Fmt 4.6, Leading zero omitted, Abs format (unit mm)*
G04 Created by KiCad (PCBNEW (5.1.4-0-10_14)) date 2021-08-26 22:39:10*
%MOMM*%
%LPD*%
G04 APERTURE LIST*
%ADD10C,0.020000*%
G04 APERTURE END LIST*
D10*
G36*
X96027000Y-66679000D02*
G01*
X96062000Y-66698000D01*
X96102000Y-66736000D01*
X96117000Y-66759000D01*
X96134000Y-66805000D01*
X96137000Y-66850000D01*
X96137000Y-67008000D01*
X96179987Y-66975706D01*
X96223000Y-66945000D01*
X96251000Y-66930000D01*
X96277000Y-66922000D01*
X96310000Y-66919000D01*
X96341000Y-66921000D01*
X96373000Y-66928000D01*
X96401000Y-66942000D01*
X96427000Y-66963000D01*
X96456000Y-66995000D01*
X96471000Y-67027000D01*
X96480000Y-67072000D01*
X96481000Y-67097000D01*
X96471000Y-67147000D01*
X96446000Y-67190000D01*
X96431000Y-67207000D01*
X96138487Y-67427167D01*
X96137000Y-67559000D01*
X96136000Y-67564000D01*
X96123000Y-67583000D01*
X96110000Y-67592000D01*
X96098000Y-67595000D01*
X96089000Y-67595000D01*
X96080000Y-67594000D01*
X96065000Y-67588000D01*
X96054000Y-67579000D01*
X96044000Y-67563000D01*
X96044487Y-67390762D01*
X96052000Y-67375000D01*
X96097000Y-67342000D01*
X96367000Y-67136000D01*
X96378000Y-67123000D01*
X96386000Y-67102000D01*
X96387000Y-67077000D01*
X96381000Y-67054000D01*
X96369000Y-67036000D01*
X96353000Y-67023000D01*
X96337066Y-67015284D01*
X96317000Y-67013000D01*
X96291000Y-67015000D01*
X96272000Y-67025000D01*
X96110000Y-67145000D01*
X96093000Y-67148000D01*
X96076000Y-67145000D01*
X96063000Y-67139000D01*
X96050784Y-67126146D01*
X96047000Y-67116000D01*
X96042000Y-66817000D01*
X96026000Y-66788000D01*
X96003000Y-66772000D01*
X95988000Y-66767000D01*
X95960000Y-66765000D01*
X95931000Y-66773000D01*
X95906000Y-66798000D01*
X95896000Y-66821000D01*
X95895000Y-67103000D01*
X95887000Y-67128000D01*
X95877000Y-67138000D01*
X95858000Y-67147000D01*
X95838000Y-67147000D01*
X95825000Y-67142000D01*
X95655000Y-67018000D01*
X95635000Y-67013000D01*
X95609000Y-67013000D01*
X95593000Y-67018000D01*
X95571000Y-67035000D01*
X95558000Y-67055000D01*
X95552000Y-67078000D01*
X95554000Y-67105000D01*
X95566000Y-67130000D01*
X95887000Y-67378000D01*
X95895000Y-67390000D01*
X95895000Y-67898000D01*
X95889000Y-67910000D01*
X95878000Y-67926000D01*
X95870000Y-67931000D01*
X95825000Y-67948000D01*
X95781000Y-67972000D01*
X95748000Y-67995000D01*
X95728000Y-68012000D01*
X95713000Y-68021000D01*
X95697000Y-68021000D01*
X95687000Y-68020000D01*
X95251000Y-67767000D01*
X95237000Y-67749000D01*
X95227000Y-67687000D01*
X95187000Y-67354000D01*
X95177000Y-67338000D01*
X95157000Y-67318000D01*
X95135000Y-67308000D01*
X95108000Y-67306000D01*
X95086000Y-67311000D01*
X95068000Y-67322000D01*
X95053000Y-67339000D01*
X95041000Y-67375000D01*
X95064000Y-67564000D01*
X95064000Y-67590000D01*
X95060000Y-67602000D01*
X95052000Y-67612000D01*
X95039000Y-67622000D01*
X95024000Y-67629000D01*
X94998000Y-67623000D01*
X94990000Y-67618000D01*
X94759000Y-67486000D01*
X94747000Y-67482000D01*
X94726000Y-67481000D01*
X94707000Y-67483000D01*
X94691000Y-67491000D01*
X94673000Y-67506000D01*
X94658000Y-67530000D01*
X94656000Y-67560000D01*
X94662000Y-67589000D01*
X94687000Y-67615000D01*
X94919000Y-67749000D01*
X94940000Y-67770000D01*
X94942000Y-67778000D01*
X94943000Y-67790000D01*
X94941000Y-67805000D01*
X94936000Y-67816000D01*
X94930000Y-67825000D01*
X94886000Y-67845000D01*
X94726000Y-67917000D01*
X94704000Y-67942000D01*
X94697000Y-67969000D01*
X94700000Y-67995000D01*
X94714000Y-68023000D01*
X94739000Y-68045000D01*
X94773000Y-68050000D01*
X94796000Y-68045000D01*
X95138000Y-67902000D01*
X95168000Y-67896000D01*
X95192000Y-67907000D01*
X95615000Y-68153000D01*
X95622000Y-68167000D01*
X95625000Y-68180000D01*
X95623000Y-68199000D01*
X95617000Y-68245000D01*
X95618000Y-68285000D01*
X95622000Y-68337000D01*
X95625000Y-68358000D01*
X95619000Y-68379000D01*
X95601000Y-68397000D01*
X95180000Y-68640000D01*
X95155000Y-68644000D01*
X95123000Y-68632000D01*
X94786000Y-68490000D01*
X94755000Y-68493000D01*
X94725000Y-68507000D01*
X94706000Y-68530000D01*
X94699000Y-68555000D01*
X94700000Y-68587000D01*
X94721000Y-68619000D01*
X94932000Y-68716000D01*
X94941000Y-68734000D01*
X94943000Y-68755000D01*
X94939000Y-68772000D01*
X94913000Y-68795000D01*
X94719000Y-68907000D01*
X94675000Y-68935000D01*
X94663000Y-68953000D01*
X94656000Y-68977000D01*
X94659000Y-69009000D01*
X94676000Y-69039000D01*
X94706000Y-69057000D01*
X94755000Y-69057000D01*
X94990000Y-68921000D01*
X95017000Y-68912000D01*
X95043000Y-68918000D01*
X95057000Y-68937000D01*
X95065000Y-68958000D01*
X95042000Y-69162000D01*
X95047000Y-69186000D01*
X95060000Y-69208000D01*
X95079000Y-69224000D01*
X95100000Y-69232000D01*
X95138000Y-69232000D01*
X95165000Y-69216000D01*
X95182000Y-69193000D01*
X95189000Y-69173000D01*
X95234000Y-68799000D01*
X95242000Y-68781000D01*
X95259000Y-68767000D01*
X95672000Y-68528000D01*
X95685000Y-68522000D01*
X95695000Y-68518000D01*
X95711870Y-68519757D01*
X95732000Y-68530000D01*
X95768000Y-68559000D01*
X95819000Y-68590000D01*
X95863000Y-68606000D01*
X95882000Y-68617000D01*
X95892000Y-68634000D01*
X95894000Y-68646000D01*
X95894000Y-69148000D01*
X95887000Y-69160000D01*
X95878000Y-69169000D01*
X95580000Y-69397000D01*
X95557000Y-69424000D01*
X95553000Y-69450000D01*
X95554000Y-69478000D01*
X95565633Y-69497105D01*
X95586000Y-69516000D01*
X95607000Y-69527000D01*
X95652000Y-69526000D01*
X95676000Y-69509000D01*
X95823000Y-69400000D01*
X95835000Y-69393000D01*
X95852000Y-69391000D01*
X95875000Y-69398000D01*
X95890000Y-69414000D01*
X95892000Y-69426000D01*
X95896000Y-69716000D01*
X95909000Y-69746000D01*
X95936000Y-69767000D01*
X95966000Y-69775000D01*
X96001000Y-69770000D01*
X96029000Y-69746000D01*
X96042000Y-69719000D01*
X96047000Y-69424000D01*
X96060000Y-69405000D01*
X96077000Y-69393000D01*
X96104000Y-69395000D01*
X96116000Y-69399000D01*
X96145000Y-69420000D01*
X96281000Y-69521000D01*
X96302000Y-69528000D01*
X96334000Y-69527000D01*
X96367000Y-69506000D01*
X96383000Y-69481000D01*
X96388000Y-69460000D01*
X96383000Y-69424000D01*
X96370000Y-69406000D01*
X96056000Y-69165000D01*
X96049958Y-69158069D01*
X96044000Y-69146000D01*
X96046000Y-68644000D01*
X96055000Y-68624000D01*
X96073000Y-68609000D01*
X96138000Y-68581000D01*
X96210000Y-68530000D01*
X96227000Y-68523000D01*
X96233000Y-68521000D01*
X96246000Y-68522000D01*
X96261000Y-68526000D01*
X96268000Y-68530000D01*
X96333000Y-68566000D01*
X96691000Y-68772000D01*
X96703000Y-68789000D01*
X96708000Y-68830000D01*
X96754000Y-69192000D01*
X96779000Y-69223000D01*
X96805000Y-69232000D01*
X96833000Y-69232000D01*
X96863000Y-69223000D01*
X96887000Y-69196000D01*
X96900000Y-69166000D01*
X96875000Y-68974000D01*
X96876000Y-68938000D01*
X96889000Y-68925000D01*
X96914000Y-68912000D01*
X96932000Y-68915000D01*
X96974000Y-68934000D01*
X97184000Y-69056000D01*
X97227000Y-69058000D01*
X97262000Y-69040000D01*
X97279000Y-69012000D01*
X97284000Y-68973000D01*
X97263000Y-68932000D01*
X97011000Y-68785000D01*
X96999000Y-68767000D01*
X96996000Y-68746000D01*
X97001000Y-68726000D01*
X97015000Y-68711000D01*
X97217000Y-68621000D01*
X97237000Y-68592000D01*
X97241000Y-68557000D01*
X97231000Y-68524000D01*
X97209000Y-68502000D01*
X97179000Y-68490000D01*
X97140000Y-68494000D01*
X96801000Y-68637000D01*
X96779000Y-68644000D01*
X96753000Y-68637000D01*
X96326000Y-68387000D01*
X96316000Y-68370000D01*
X96316000Y-68344000D01*
X96321000Y-68261000D01*
X96318000Y-68208000D01*
X96315000Y-68180000D01*
X96318000Y-68160000D01*
X96329000Y-68149000D01*
X96338000Y-68143000D01*
X96349000Y-68136000D01*
X96363000Y-68128000D01*
X96450000Y-68079000D01*
X96465000Y-68072000D01*
X96477000Y-68071000D01*
X96489000Y-68073000D01*
X96504286Y-68081298D01*
X96513000Y-68092000D01*
X96519000Y-68103000D01*
X96521000Y-68117000D01*
X96520000Y-68131000D01*
X96513000Y-68145000D01*
X96505000Y-68153000D01*
X96411708Y-68208524D01*
X96414000Y-68227000D01*
X96414000Y-68305000D01*
X96412000Y-68332000D01*
X96782632Y-68544349D01*
X97122000Y-68403000D01*
X97143000Y-68398000D01*
X97170000Y-68397000D01*
X97195000Y-68398000D01*
X97217000Y-68404000D01*
X97238000Y-68412000D01*
X97262000Y-68426000D01*
X97280000Y-68440000D01*
X97294000Y-68455000D01*
X97312000Y-68480000D01*
X97324000Y-68504000D01*
X97332000Y-68532000D01*
X97333000Y-68573000D01*
X97331000Y-68598000D01*
X97320000Y-68634000D01*
X97294000Y-68674000D01*
X97269000Y-68698000D01*
X97251000Y-68709000D01*
X97155000Y-68752000D01*
X97151160Y-68755777D01*
X97151000Y-68758000D01*
X97315000Y-68854000D01*
X97338000Y-68878000D01*
X97365000Y-68920000D01*
X97375000Y-68965000D01*
X97376000Y-69002000D01*
X97369000Y-69041000D01*
X97348000Y-69082000D01*
X97313000Y-69117000D01*
X97288000Y-69134000D01*
X97240000Y-69153000D01*
X97191000Y-69153000D01*
X97140000Y-69138000D01*
X96979000Y-69048000D01*
X96991000Y-69159000D01*
X96987000Y-69201000D01*
X96973000Y-69232000D01*
X96950000Y-69271000D01*
X96915000Y-69301000D01*
X96874000Y-69321000D01*
X96826000Y-69328000D01*
X96770000Y-69321000D01*
X96730000Y-69300000D01*
X96696000Y-69271000D01*
X96670000Y-69229000D01*
X96661765Y-69206284D01*
X96613000Y-68832000D01*
X96243125Y-68621713D01*
X96215000Y-68642000D01*
X96186000Y-68659000D01*
X96136000Y-68685000D01*
X96138000Y-69113000D01*
X96436000Y-69337000D01*
X96465000Y-69383000D01*
X96480000Y-69440000D01*
X96480000Y-69484000D01*
X96466000Y-69526000D01*
X96446000Y-69555000D01*
X96414000Y-69589000D01*
X96381000Y-69609000D01*
X96339000Y-69620000D01*
X96290000Y-69620000D01*
X96256000Y-69612000D01*
X96219000Y-69591000D01*
X96136000Y-69531000D01*
X96137000Y-69570000D01*
X96136000Y-69713000D01*
X96134000Y-69736000D01*
X96127000Y-69760000D01*
X96098000Y-69809000D01*
X96064000Y-69840000D01*
X96017000Y-69865000D01*
X95973000Y-69870000D01*
X95926000Y-69863000D01*
X95883000Y-69844000D01*
X95848000Y-69817000D01*
X95820000Y-69777000D01*
X95805000Y-69733000D01*
X95801000Y-69676000D01*
X95801000Y-69531000D01*
X95732000Y-69582000D01*
X95696000Y-69608000D01*
X95658000Y-69619000D01*
X95610000Y-69622000D01*
X95573000Y-69615000D01*
X95530000Y-69592000D01*
X95493000Y-69559000D01*
X95471000Y-69519000D01*
X95459000Y-69476000D01*
X95461000Y-69426000D01*
X95477000Y-69377000D01*
X95509000Y-69335000D01*
X95575000Y-69283000D01*
X95802000Y-69110000D01*
X95802000Y-68682000D01*
X95755000Y-68661000D01*
X95721000Y-68640000D01*
X95695467Y-68621923D01*
X95323000Y-68836000D01*
X95278000Y-69205000D01*
X95258000Y-69250000D01*
X95234000Y-69278000D01*
X95195000Y-69308000D01*
X95142000Y-69327000D01*
X95077000Y-69323000D01*
X95030000Y-69303000D01*
X94984000Y-69264000D01*
X94958000Y-69220000D01*
X94948000Y-69166000D01*
X94959328Y-69049511D01*
X94840000Y-69113000D01*
X94798000Y-69137000D01*
X94747000Y-69153000D01*
X94701000Y-69151000D01*
X94651000Y-69133000D01*
X94612625Y-69104865D01*
X94582000Y-69067000D01*
X94562000Y-69007000D01*
X94565000Y-68950000D01*
X94589000Y-68892000D01*
X94633000Y-68844000D01*
X94788000Y-68756000D01*
X94693000Y-68713000D01*
X94656000Y-68685000D01*
X94622000Y-68640000D01*
X94606000Y-68585000D01*
X94609000Y-68530000D01*
X94629000Y-68477000D01*
X94663000Y-68437000D01*
X94701000Y-68412000D01*
X94743000Y-68399000D01*
X94802000Y-68399000D01*
X95157000Y-68546000D01*
X95526000Y-68332000D01*
X95524000Y-68270000D01*
X95525000Y-68230000D01*
X95527357Y-68208413D01*
X95156391Y-67994198D01*
X94814000Y-68139000D01*
X94767000Y-68143000D01*
X94705000Y-68129000D01*
X94657000Y-68099000D01*
X94614000Y-68037000D01*
X94604000Y-67978000D01*
X94612000Y-67918000D01*
X94650000Y-67858000D01*
X94690000Y-67829000D01*
X94788000Y-67781000D01*
X94779000Y-67777000D01*
X94634000Y-67691000D01*
X94601000Y-67663000D01*
X94569000Y-67613000D01*
X94562000Y-67539000D01*
X94576000Y-67483000D01*
X94610000Y-67436000D01*
X94651000Y-67407000D01*
X94700000Y-67391000D01*
X94727000Y-67387000D01*
X94786000Y-67397000D01*
X94959000Y-67490000D01*
X94947000Y-67384000D01*
X94957000Y-67326000D01*
X94986000Y-67275000D01*
X95029000Y-67236000D01*
X95073000Y-67218000D01*
X95119000Y-67212000D01*
X95156000Y-67216000D01*
X95205000Y-67238000D01*
X95251000Y-67283000D01*
X95278000Y-67332000D01*
X95323000Y-67707000D01*
X95696000Y-67918000D01*
X95741000Y-67887000D01*
X95774000Y-67868000D01*
X95802000Y-67855000D01*
X95802000Y-67427000D01*
X95516012Y-67212039D01*
X95495000Y-67190000D01*
X95478000Y-67164000D01*
X95465000Y-67132000D01*
X95458000Y-67093000D01*
X95459000Y-67061000D01*
X95470000Y-67023000D01*
X95490000Y-66985000D01*
X95522000Y-66956000D01*
X95557000Y-66933000D01*
X95600000Y-66920000D01*
X95655000Y-66920000D01*
X95694000Y-66933000D01*
X95733000Y-66958000D01*
X95803000Y-67008000D01*
X95802000Y-66971000D01*
X95803000Y-66825000D01*
X95812000Y-66781000D01*
X95831000Y-66744000D01*
X95855000Y-66717000D01*
X95878000Y-66698000D01*
X95913000Y-66679000D01*
X95947000Y-66671000D01*
X95984000Y-66671000D01*
X96027000Y-66679000D01*
G37*
X96027000Y-66679000D02*
X96062000Y-66698000D01*
X96102000Y-66736000D01*
X96117000Y-66759000D01*
X96134000Y-66805000D01*
X96137000Y-66850000D01*
X96137000Y-67008000D01*
X96179987Y-66975706D01*
X96223000Y-66945000D01*
X96251000Y-66930000D01*
X96277000Y-66922000D01*
X96310000Y-66919000D01*
X96341000Y-66921000D01*
X96373000Y-66928000D01*
X96401000Y-66942000D01*
X96427000Y-66963000D01*
X96456000Y-66995000D01*
X96471000Y-67027000D01*
X96480000Y-67072000D01*
X96481000Y-67097000D01*
X96471000Y-67147000D01*
X96446000Y-67190000D01*
X96431000Y-67207000D01*
X96138487Y-67427167D01*
X96137000Y-67559000D01*
X96136000Y-67564000D01*
X96123000Y-67583000D01*
X96110000Y-67592000D01*
X96098000Y-67595000D01*
X96089000Y-67595000D01*
X96080000Y-67594000D01*
X96065000Y-67588000D01*
X96054000Y-67579000D01*
X96044000Y-67563000D01*
X96044487Y-67390762D01*
X96052000Y-67375000D01*
X96097000Y-67342000D01*
X96367000Y-67136000D01*
X96378000Y-67123000D01*
X96386000Y-67102000D01*
X96387000Y-67077000D01*
X96381000Y-67054000D01*
X96369000Y-67036000D01*
X96353000Y-67023000D01*
X96337066Y-67015284D01*
X96317000Y-67013000D01*
X96291000Y-67015000D01*
X96272000Y-67025000D01*
X96110000Y-67145000D01*
X96093000Y-67148000D01*
X96076000Y-67145000D01*
X96063000Y-67139000D01*
X96050784Y-67126146D01*
X96047000Y-67116000D01*
X96042000Y-66817000D01*
X96026000Y-66788000D01*
X96003000Y-66772000D01*
X95988000Y-66767000D01*
X95960000Y-66765000D01*
X95931000Y-66773000D01*
X95906000Y-66798000D01*
X95896000Y-66821000D01*
X95895000Y-67103000D01*
X95887000Y-67128000D01*
X95877000Y-67138000D01*
X95858000Y-67147000D01*
X95838000Y-67147000D01*
X95825000Y-67142000D01*
X95655000Y-67018000D01*
X95635000Y-67013000D01*
X95609000Y-67013000D01*
X95593000Y-67018000D01*
X95571000Y-67035000D01*
X95558000Y-67055000D01*
X95552000Y-67078000D01*
X95554000Y-67105000D01*
X95566000Y-67130000D01*
X95887000Y-67378000D01*
X95895000Y-67390000D01*
X95895000Y-67898000D01*
X95889000Y-67910000D01*
X95878000Y-67926000D01*
X95870000Y-67931000D01*
X95825000Y-67948000D01*
X95781000Y-67972000D01*
X95748000Y-67995000D01*
X95728000Y-68012000D01*
X95713000Y-68021000D01*
X95697000Y-68021000D01*
X95687000Y-68020000D01*
X95251000Y-67767000D01*
X95237000Y-67749000D01*
X95227000Y-67687000D01*
X95187000Y-67354000D01*
X95177000Y-67338000D01*
X95157000Y-67318000D01*
X95135000Y-67308000D01*
X95108000Y-67306000D01*
X95086000Y-67311000D01*
X95068000Y-67322000D01*
X95053000Y-67339000D01*
X95041000Y-67375000D01*
X95064000Y-67564000D01*
X95064000Y-67590000D01*
X95060000Y-67602000D01*
X95052000Y-67612000D01*
X95039000Y-67622000D01*
X95024000Y-67629000D01*
X94998000Y-67623000D01*
X94990000Y-67618000D01*
X94759000Y-67486000D01*
X94747000Y-67482000D01*
X94726000Y-67481000D01*
X94707000Y-67483000D01*
X94691000Y-67491000D01*
X94673000Y-67506000D01*
X94658000Y-67530000D01*
X94656000Y-67560000D01*
X94662000Y-67589000D01*
X94687000Y-67615000D01*
X94919000Y-67749000D01*
X94940000Y-67770000D01*
X94942000Y-67778000D01*
X94943000Y-67790000D01*
X94941000Y-67805000D01*
X94936000Y-67816000D01*
X94930000Y-67825000D01*
X94886000Y-67845000D01*
X94726000Y-67917000D01*
X94704000Y-67942000D01*
X94697000Y-67969000D01*
X94700000Y-67995000D01*
X94714000Y-68023000D01*
X94739000Y-68045000D01*
X94773000Y-68050000D01*
X94796000Y-68045000D01*
X95138000Y-67902000D01*
X95168000Y-67896000D01*
X95192000Y-67907000D01*
X95615000Y-68153000D01*
X95622000Y-68167000D01*
X95625000Y-68180000D01*
X95623000Y-68199000D01*
X95617000Y-68245000D01*
X95618000Y-68285000D01*
X95622000Y-68337000D01*
X95625000Y-68358000D01*
X95619000Y-68379000D01*
X95601000Y-68397000D01*
X95180000Y-68640000D01*
X95155000Y-68644000D01*
X95123000Y-68632000D01*
X94786000Y-68490000D01*
X94755000Y-68493000D01*
X94725000Y-68507000D01*
X94706000Y-68530000D01*
X94699000Y-68555000D01*
X94700000Y-68587000D01*
X94721000Y-68619000D01*
X94932000Y-68716000D01*
X94941000Y-68734000D01*
X94943000Y-68755000D01*
X94939000Y-68772000D01*
X94913000Y-68795000D01*
X94719000Y-68907000D01*
X94675000Y-68935000D01*
X94663000Y-68953000D01*
X94656000Y-68977000D01*
X94659000Y-69009000D01*
X94676000Y-69039000D01*
X94706000Y-69057000D01*
X94755000Y-69057000D01*
X94990000Y-68921000D01*
X95017000Y-68912000D01*
X95043000Y-68918000D01*
X95057000Y-68937000D01*
X95065000Y-68958000D01*
X95042000Y-69162000D01*
X95047000Y-69186000D01*
X95060000Y-69208000D01*
X95079000Y-69224000D01*
X95100000Y-69232000D01*
X95138000Y-69232000D01*
X95165000Y-69216000D01*
X95182000Y-69193000D01*
X95189000Y-69173000D01*
X95234000Y-68799000D01*
X95242000Y-68781000D01*
X95259000Y-68767000D01*
X95672000Y-68528000D01*
X95685000Y-68522000D01*
X95695000Y-68518000D01*
X95711870Y-68519757D01*
X95732000Y-68530000D01*
X95768000Y-68559000D01*
X95819000Y-68590000D01*
X95863000Y-68606000D01*
X95882000Y-68617000D01*
X95892000Y-68634000D01*
X95894000Y-68646000D01*
X95894000Y-69148000D01*
X95887000Y-69160000D01*
X95878000Y-69169000D01*
X95580000Y-69397000D01*
X95557000Y-69424000D01*
X95553000Y-69450000D01*
X95554000Y-69478000D01*
X95565633Y-69497105D01*
X95586000Y-69516000D01*
X95607000Y-69527000D01*
X95652000Y-69526000D01*
X95676000Y-69509000D01*
X95823000Y-69400000D01*
X95835000Y-69393000D01*
X95852000Y-69391000D01*
X95875000Y-69398000D01*
X95890000Y-69414000D01*
X95892000Y-69426000D01*
X95896000Y-69716000D01*
X95909000Y-69746000D01*
X95936000Y-69767000D01*
X95966000Y-69775000D01*
X96001000Y-69770000D01*
X96029000Y-69746000D01*
X96042000Y-69719000D01*
X96047000Y-69424000D01*
X96060000Y-69405000D01*
X96077000Y-69393000D01*
X96104000Y-69395000D01*
X96116000Y-69399000D01*
X96145000Y-69420000D01*
X96281000Y-69521000D01*
X96302000Y-69528000D01*
X96334000Y-69527000D01*
X96367000Y-69506000D01*
X96383000Y-69481000D01*
X96388000Y-69460000D01*
X96383000Y-69424000D01*
X96370000Y-69406000D01*
X96056000Y-69165000D01*
X96049958Y-69158069D01*
X96044000Y-69146000D01*
X96046000Y-68644000D01*
X96055000Y-68624000D01*
X96073000Y-68609000D01*
X96138000Y-68581000D01*
X96210000Y-68530000D01*
X96227000Y-68523000D01*
X96233000Y-68521000D01*
X96246000Y-68522000D01*
X96261000Y-68526000D01*
X96268000Y-68530000D01*
X96333000Y-68566000D01*
X96691000Y-68772000D01*
X96703000Y-68789000D01*
X96708000Y-68830000D01*
X96754000Y-69192000D01*
X96779000Y-69223000D01*
X96805000Y-69232000D01*
X96833000Y-69232000D01*
X96863000Y-69223000D01*
X96887000Y-69196000D01*
X96900000Y-69166000D01*
X96875000Y-68974000D01*
X96876000Y-68938000D01*
X96889000Y-68925000D01*
X96914000Y-68912000D01*
X96932000Y-68915000D01*
X96974000Y-68934000D01*
X97184000Y-69056000D01*
X97227000Y-69058000D01*
X97262000Y-69040000D01*
X97279000Y-69012000D01*
X97284000Y-68973000D01*
X97263000Y-68932000D01*
X97011000Y-68785000D01*
X96999000Y-68767000D01*
X96996000Y-68746000D01*
X97001000Y-68726000D01*
X97015000Y-68711000D01*
X97217000Y-68621000D01*
X97237000Y-68592000D01*
X97241000Y-68557000D01*
X97231000Y-68524000D01*
X97209000Y-68502000D01*
X97179000Y-68490000D01*
X97140000Y-68494000D01*
X96801000Y-68637000D01*
X96779000Y-68644000D01*
X96753000Y-68637000D01*
X96326000Y-68387000D01*
X96316000Y-68370000D01*
X96316000Y-68344000D01*
X96321000Y-68261000D01*
X96318000Y-68208000D01*
X96315000Y-68180000D01*
X96318000Y-68160000D01*
X96329000Y-68149000D01*
X96338000Y-68143000D01*
X96349000Y-68136000D01*
X96363000Y-68128000D01*
X96450000Y-68079000D01*
X96465000Y-68072000D01*
X96477000Y-68071000D01*
X96489000Y-68073000D01*
X96504286Y-68081298D01*
X96513000Y-68092000D01*
X96519000Y-68103000D01*
X96521000Y-68117000D01*
X96520000Y-68131000D01*
X96513000Y-68145000D01*
X96505000Y-68153000D01*
X96411708Y-68208524D01*
X96414000Y-68227000D01*
X96414000Y-68305000D01*
X96412000Y-68332000D01*
X96782632Y-68544349D01*
X97122000Y-68403000D01*
X97143000Y-68398000D01*
X97170000Y-68397000D01*
X97195000Y-68398000D01*
X97217000Y-68404000D01*
X97238000Y-68412000D01*
X97262000Y-68426000D01*
X97280000Y-68440000D01*
X97294000Y-68455000D01*
X97312000Y-68480000D01*
X97324000Y-68504000D01*
X97332000Y-68532000D01*
X97333000Y-68573000D01*
X97331000Y-68598000D01*
X97320000Y-68634000D01*
X97294000Y-68674000D01*
X97269000Y-68698000D01*
X97251000Y-68709000D01*
X97155000Y-68752000D01*
X97151160Y-68755777D01*
X97151000Y-68758000D01*
X97315000Y-68854000D01*
X97338000Y-68878000D01*
X97365000Y-68920000D01*
X97375000Y-68965000D01*
X97376000Y-69002000D01*
X97369000Y-69041000D01*
X97348000Y-69082000D01*
X97313000Y-69117000D01*
X97288000Y-69134000D01*
X97240000Y-69153000D01*
X97191000Y-69153000D01*
X97140000Y-69138000D01*
X96979000Y-69048000D01*
X96991000Y-69159000D01*
X96987000Y-69201000D01*
X96973000Y-69232000D01*
X96950000Y-69271000D01*
X96915000Y-69301000D01*
X96874000Y-69321000D01*
X96826000Y-69328000D01*
X96770000Y-69321000D01*
X96730000Y-69300000D01*
X96696000Y-69271000D01*
X96670000Y-69229000D01*
X96661765Y-69206284D01*
X96613000Y-68832000D01*
X96243125Y-68621713D01*
X96215000Y-68642000D01*
X96186000Y-68659000D01*
X96136000Y-68685000D01*
X96138000Y-69113000D01*
X96436000Y-69337000D01*
X96465000Y-69383000D01*
X96480000Y-69440000D01*
X96480000Y-69484000D01*
X96466000Y-69526000D01*
X96446000Y-69555000D01*
X96414000Y-69589000D01*
X96381000Y-69609000D01*
X96339000Y-69620000D01*
X96290000Y-69620000D01*
X96256000Y-69612000D01*
X96219000Y-69591000D01*
X96136000Y-69531000D01*
X96137000Y-69570000D01*
X96136000Y-69713000D01*
X96134000Y-69736000D01*
X96127000Y-69760000D01*
X96098000Y-69809000D01*
X96064000Y-69840000D01*
X96017000Y-69865000D01*
X95973000Y-69870000D01*
X95926000Y-69863000D01*
X95883000Y-69844000D01*
X95848000Y-69817000D01*
X95820000Y-69777000D01*
X95805000Y-69733000D01*
X95801000Y-69676000D01*
X95801000Y-69531000D01*
X95732000Y-69582000D01*
X95696000Y-69608000D01*
X95658000Y-69619000D01*
X95610000Y-69622000D01*
X95573000Y-69615000D01*
X95530000Y-69592000D01*
X95493000Y-69559000D01*
X95471000Y-69519000D01*
X95459000Y-69476000D01*
X95461000Y-69426000D01*
X95477000Y-69377000D01*
X95509000Y-69335000D01*
X95575000Y-69283000D01*
X95802000Y-69110000D01*
X95802000Y-68682000D01*
X95755000Y-68661000D01*
X95721000Y-68640000D01*
X95695467Y-68621923D01*
X95323000Y-68836000D01*
X95278000Y-69205000D01*
X95258000Y-69250000D01*
X95234000Y-69278000D01*
X95195000Y-69308000D01*
X95142000Y-69327000D01*
X95077000Y-69323000D01*
X95030000Y-69303000D01*
X94984000Y-69264000D01*
X94958000Y-69220000D01*
X94948000Y-69166000D01*
X94959328Y-69049511D01*
X94840000Y-69113000D01*
X94798000Y-69137000D01*
X94747000Y-69153000D01*
X94701000Y-69151000D01*
X94651000Y-69133000D01*
X94612625Y-69104865D01*
X94582000Y-69067000D01*
X94562000Y-69007000D01*
X94565000Y-68950000D01*
X94589000Y-68892000D01*
X94633000Y-68844000D01*
X94788000Y-68756000D01*
X94693000Y-68713000D01*
X94656000Y-68685000D01*
X94622000Y-68640000D01*
X94606000Y-68585000D01*
X94609000Y-68530000D01*
X94629000Y-68477000D01*
X94663000Y-68437000D01*
X94701000Y-68412000D01*
X94743000Y-68399000D01*
X94802000Y-68399000D01*
X95157000Y-68546000D01*
X95526000Y-68332000D01*
X95524000Y-68270000D01*
X95525000Y-68230000D01*
X95527357Y-68208413D01*
X95156391Y-67994198D01*
X94814000Y-68139000D01*
X94767000Y-68143000D01*
X94705000Y-68129000D01*
X94657000Y-68099000D01*
X94614000Y-68037000D01*
X94604000Y-67978000D01*
X94612000Y-67918000D01*
X94650000Y-67858000D01*
X94690000Y-67829000D01*
X94788000Y-67781000D01*
X94779000Y-67777000D01*
X94634000Y-67691000D01*
X94601000Y-67663000D01*
X94569000Y-67613000D01*
X94562000Y-67539000D01*
X94576000Y-67483000D01*
X94610000Y-67436000D01*
X94651000Y-67407000D01*
X94700000Y-67391000D01*
X94727000Y-67387000D01*
X94786000Y-67397000D01*
X94959000Y-67490000D01*
X94947000Y-67384000D01*
X94957000Y-67326000D01*
X94986000Y-67275000D01*
X95029000Y-67236000D01*
X95073000Y-67218000D01*
X95119000Y-67212000D01*
X95156000Y-67216000D01*
X95205000Y-67238000D01*
X95251000Y-67283000D01*
X95278000Y-67332000D01*
X95323000Y-67707000D01*
X95696000Y-67918000D01*
X95741000Y-67887000D01*
X95774000Y-67868000D01*
X95802000Y-67855000D01*
X95802000Y-67427000D01*
X95516012Y-67212039D01*
X95495000Y-67190000D01*
X95478000Y-67164000D01*
X95465000Y-67132000D01*
X95458000Y-67093000D01*
X95459000Y-67061000D01*
X95470000Y-67023000D01*
X95490000Y-66985000D01*
X95522000Y-66956000D01*
X95557000Y-66933000D01*
X95600000Y-66920000D01*
X95655000Y-66920000D01*
X95694000Y-66933000D01*
X95733000Y-66958000D01*
X95803000Y-67008000D01*
X95802000Y-66971000D01*
X95803000Y-66825000D01*
X95812000Y-66781000D01*
X95831000Y-66744000D01*
X95855000Y-66717000D01*
X95878000Y-66698000D01*
X95913000Y-66679000D01*
X95947000Y-66671000D01*
X95984000Y-66671000D01*
X96027000Y-66679000D01*
G36*
X96843000Y-67213000D02*
G01*
X96856000Y-67215000D01*
X96868000Y-67218000D01*
X96886000Y-67224000D01*
X96899000Y-67230000D01*
X96921000Y-67243000D01*
X96939000Y-67259000D01*
X96958000Y-67280000D01*
X96968000Y-67297000D01*
X96977000Y-67315000D01*
X96985000Y-67334000D01*
X96990000Y-67360000D01*
X96990000Y-67385000D01*
X96980000Y-67491000D01*
X96980854Y-67491054D01*
X97003000Y-67479000D01*
X97141838Y-67401273D01*
X97168000Y-67391000D01*
X97184000Y-67388000D01*
X97201000Y-67386000D01*
X97213000Y-67386000D01*
X97228000Y-67387000D01*
X97245000Y-67390000D01*
X97256000Y-67393000D01*
X97266000Y-67396000D01*
X97277000Y-67400000D01*
X97297000Y-67410000D01*
X97314000Y-67424000D01*
X97328000Y-67437000D01*
X97343000Y-67451000D01*
X97361000Y-67479000D01*
X97372000Y-67512000D01*
X97376000Y-67547000D01*
X97375000Y-67573000D01*
X97374000Y-67584000D01*
X97372000Y-67597000D01*
X97368000Y-67611000D01*
X97359000Y-67629000D01*
X97351000Y-67644000D01*
X97338000Y-67661000D01*
X97313000Y-67686000D01*
X97297000Y-67696000D01*
X97276000Y-67709000D01*
X97151000Y-67781000D01*
X97151160Y-67783755D01*
X97153000Y-67786000D01*
X97164785Y-67791790D01*
X97200000Y-67807000D01*
X97231812Y-67821076D01*
X97254000Y-67832000D01*
X97269000Y-67842000D01*
X97285000Y-67857000D01*
X97299000Y-67872000D01*
X97310000Y-67889000D01*
X97325000Y-67919000D01*
X97332000Y-67946000D01*
X97335000Y-67968000D01*
X97334000Y-67992000D01*
X97331000Y-68010000D01*
X97326000Y-68029000D01*
X97316000Y-68054000D01*
X97302000Y-68075000D01*
X97290000Y-68090000D01*
X97273000Y-68106000D01*
X97250000Y-68121000D01*
X97227000Y-68132000D01*
X97209000Y-68138000D01*
X97184000Y-68142000D01*
X97160000Y-68144000D01*
X97138000Y-68141000D01*
X97111000Y-68133000D01*
X97088000Y-68124000D01*
X97030000Y-68100000D01*
X96785000Y-67996000D01*
X96780000Y-67996000D01*
X96766000Y-68003000D01*
X96713000Y-68035000D01*
X96675000Y-68055000D01*
X96654000Y-68054000D01*
X96641000Y-68048000D01*
X96625000Y-68033000D01*
X96618000Y-68012000D01*
X96622000Y-67988000D01*
X96635000Y-67973000D01*
X96662000Y-67957000D01*
X96741000Y-67910000D01*
X96764000Y-67898000D01*
X96780000Y-67897000D01*
X96798000Y-67901000D01*
X96846000Y-67919000D01*
X97124000Y-68037000D01*
X97152000Y-68048000D01*
X97169000Y-68049000D01*
X97195000Y-68044000D01*
X97217000Y-68032000D01*
X97231000Y-68014000D01*
X97241000Y-67983000D01*
X97240000Y-67961000D01*
X97231000Y-67937000D01*
X97213000Y-67918000D01*
X97179000Y-67900000D01*
X97015000Y-67829000D01*
X97002000Y-67814000D01*
X96996000Y-67799000D01*
X96996000Y-67782000D01*
X97003000Y-67764000D01*
X97017000Y-67752000D01*
X97252000Y-67613000D01*
X97266000Y-67603000D01*
X97282000Y-67573000D01*
X97282000Y-67533000D01*
X97270000Y-67511000D01*
X97256000Y-67496000D01*
X97232000Y-67482000D01*
X97200000Y-67480000D01*
X97179000Y-67485000D01*
X97076000Y-67545000D01*
X96949000Y-67619000D01*
X96935000Y-67626000D01*
X96914000Y-67628000D01*
X96895000Y-67619000D01*
X96885000Y-67608000D01*
X96877000Y-67595000D01*
X96876000Y-67583000D01*
X96883000Y-67519000D01*
X96894000Y-67427000D01*
X96898000Y-67371000D01*
X96889000Y-67342000D01*
X96871000Y-67322000D01*
X96852000Y-67311000D01*
X96828000Y-67304000D01*
X96800000Y-67308000D01*
X96764000Y-67330000D01*
X96752000Y-67358000D01*
X96747000Y-67393000D01*
X96704000Y-67738000D01*
X96702000Y-67748000D01*
X96695000Y-67762000D01*
X96685000Y-67770000D01*
X96253000Y-68020000D01*
X96234000Y-68021000D01*
X96224000Y-68019000D01*
X96213022Y-68013227D01*
X96202000Y-68005000D01*
X96182000Y-67989000D01*
X96152000Y-67969000D01*
X96119000Y-67951000D01*
X96086000Y-67937000D01*
X96064265Y-67927585D01*
X96054000Y-67918000D01*
X96046000Y-67902000D01*
X96044000Y-67894000D01*
X96044000Y-67765000D01*
X96046000Y-67754000D01*
X96049000Y-67747000D01*
X96055000Y-67738000D01*
X96061000Y-67732000D01*
X96068000Y-67727000D01*
X96074613Y-67723898D01*
X96079809Y-67722785D01*
X96088000Y-67722000D01*
X96094000Y-67722000D01*
X96101000Y-67723000D01*
X96106000Y-67724000D01*
X96114721Y-67727882D01*
X96119000Y-67731000D01*
X96124933Y-67736451D01*
X96129000Y-67742000D01*
X96134000Y-67751000D01*
X96136000Y-67759000D01*
X96137000Y-67765000D01*
X96137000Y-67781000D01*
X96137487Y-67855413D01*
X96163000Y-67868000D01*
X96189000Y-67882000D01*
X96220000Y-67901000D01*
X96243000Y-67918000D01*
X96287000Y-67893000D01*
X96358000Y-67852000D01*
X96614669Y-67703326D01*
X96658000Y-67349000D01*
X96668000Y-67317000D01*
X96680000Y-67292000D01*
X96705000Y-67261000D01*
X96728000Y-67242000D01*
X96749000Y-67229000D01*
X96776000Y-67218000D01*
X96795000Y-67214000D01*
X96814000Y-67212000D01*
X96830000Y-67212000D01*
X96843000Y-67213000D01*
G37*
X96843000Y-67213000D02*
X96856000Y-67215000D01*
X96868000Y-67218000D01*
X96886000Y-67224000D01*
X96899000Y-67230000D01*
X96921000Y-67243000D01*
X96939000Y-67259000D01*
X96958000Y-67280000D01*
X96968000Y-67297000D01*
X96977000Y-67315000D01*
X96985000Y-67334000D01*
X96990000Y-67360000D01*
X96990000Y-67385000D01*
X96980000Y-67491000D01*
X96980854Y-67491054D01*
X97003000Y-67479000D01*
X97141838Y-67401273D01*
X97168000Y-67391000D01*
X97184000Y-67388000D01*
X97201000Y-67386000D01*
X97213000Y-67386000D01*
X97228000Y-67387000D01*
X97245000Y-67390000D01*
X97256000Y-67393000D01*
X97266000Y-67396000D01*
X97277000Y-67400000D01*
X97297000Y-67410000D01*
X97314000Y-67424000D01*
X97328000Y-67437000D01*
X97343000Y-67451000D01*
X97361000Y-67479000D01*
X97372000Y-67512000D01*
X97376000Y-67547000D01*
X97375000Y-67573000D01*
X97374000Y-67584000D01*
X97372000Y-67597000D01*
X97368000Y-67611000D01*
X97359000Y-67629000D01*
X97351000Y-67644000D01*
X97338000Y-67661000D01*
X97313000Y-67686000D01*
X97297000Y-67696000D01*
X97276000Y-67709000D01*
X97151000Y-67781000D01*
X97151160Y-67783755D01*
X97153000Y-67786000D01*
X97164785Y-67791790D01*
X97200000Y-67807000D01*
X97231812Y-67821076D01*
X97254000Y-67832000D01*
X97269000Y-67842000D01*
X97285000Y-67857000D01*
X97299000Y-67872000D01*
X97310000Y-67889000D01*
X97325000Y-67919000D01*
X97332000Y-67946000D01*
X97335000Y-67968000D01*
X97334000Y-67992000D01*
X97331000Y-68010000D01*
X97326000Y-68029000D01*
X97316000Y-68054000D01*
X97302000Y-68075000D01*
X97290000Y-68090000D01*
X97273000Y-68106000D01*
X97250000Y-68121000D01*
X97227000Y-68132000D01*
X97209000Y-68138000D01*
X97184000Y-68142000D01*
X97160000Y-68144000D01*
X97138000Y-68141000D01*
X97111000Y-68133000D01*
X97088000Y-68124000D01*
X97030000Y-68100000D01*
X96785000Y-67996000D01*
X96780000Y-67996000D01*
X96766000Y-68003000D01*
X96713000Y-68035000D01*
X96675000Y-68055000D01*
X96654000Y-68054000D01*
X96641000Y-68048000D01*
X96625000Y-68033000D01*
X96618000Y-68012000D01*
X96622000Y-67988000D01*
X96635000Y-67973000D01*
X96662000Y-67957000D01*
X96741000Y-67910000D01*
X96764000Y-67898000D01*
X96780000Y-67897000D01*
X96798000Y-67901000D01*
X96846000Y-67919000D01*
X97124000Y-68037000D01*
X97152000Y-68048000D01*
X97169000Y-68049000D01*
X97195000Y-68044000D01*
X97217000Y-68032000D01*
X97231000Y-68014000D01*
X97241000Y-67983000D01*
X97240000Y-67961000D01*
X97231000Y-67937000D01*
X97213000Y-67918000D01*
X97179000Y-67900000D01*
X97015000Y-67829000D01*
X97002000Y-67814000D01*
X96996000Y-67799000D01*
X96996000Y-67782000D01*
X97003000Y-67764000D01*
X97017000Y-67752000D01*
X97252000Y-67613000D01*
X97266000Y-67603000D01*
X97282000Y-67573000D01*
X97282000Y-67533000D01*
X97270000Y-67511000D01*
X97256000Y-67496000D01*
X97232000Y-67482000D01*
X97200000Y-67480000D01*
X97179000Y-67485000D01*
X97076000Y-67545000D01*
X96949000Y-67619000D01*
X96935000Y-67626000D01*
X96914000Y-67628000D01*
X96895000Y-67619000D01*
X96885000Y-67608000D01*
X96877000Y-67595000D01*
X96876000Y-67583000D01*
X96883000Y-67519000D01*
X96894000Y-67427000D01*
X96898000Y-67371000D01*
X96889000Y-67342000D01*
X96871000Y-67322000D01*
X96852000Y-67311000D01*
X96828000Y-67304000D01*
X96800000Y-67308000D01*
X96764000Y-67330000D01*
X96752000Y-67358000D01*
X96747000Y-67393000D01*
X96704000Y-67738000D01*
X96702000Y-67748000D01*
X96695000Y-67762000D01*
X96685000Y-67770000D01*
X96253000Y-68020000D01*
X96234000Y-68021000D01*
X96224000Y-68019000D01*
X96213022Y-68013227D01*
X96202000Y-68005000D01*
X96182000Y-67989000D01*
X96152000Y-67969000D01*
X96119000Y-67951000D01*
X96086000Y-67937000D01*
X96064265Y-67927585D01*
X96054000Y-67918000D01*
X96046000Y-67902000D01*
X96044000Y-67894000D01*
X96044000Y-67765000D01*
X96046000Y-67754000D01*
X96049000Y-67747000D01*
X96055000Y-67738000D01*
X96061000Y-67732000D01*
X96068000Y-67727000D01*
X96074613Y-67723898D01*
X96079809Y-67722785D01*
X96088000Y-67722000D01*
X96094000Y-67722000D01*
X96101000Y-67723000D01*
X96106000Y-67724000D01*
X96114721Y-67727882D01*
X96119000Y-67731000D01*
X96124933Y-67736451D01*
X96129000Y-67742000D01*
X96134000Y-67751000D01*
X96136000Y-67759000D01*
X96137000Y-67765000D01*
X96137000Y-67781000D01*
X96137487Y-67855413D01*
X96163000Y-67868000D01*
X96189000Y-67882000D01*
X96220000Y-67901000D01*
X96243000Y-67918000D01*
X96287000Y-67893000D01*
X96358000Y-67852000D01*
X96614669Y-67703326D01*
X96658000Y-67349000D01*
X96668000Y-67317000D01*
X96680000Y-67292000D01*
X96705000Y-67261000D01*
X96728000Y-67242000D01*
X96749000Y-67229000D01*
X96776000Y-67218000D01*
X96795000Y-67214000D01*
X96814000Y-67212000D01*
X96830000Y-67212000D01*
X96843000Y-67213000D01*
G36*
X95994000Y-68068000D02*
G01*
X96014000Y-68070000D01*
X96035000Y-68076000D01*
X96056000Y-68085000D01*
X96076000Y-68096000D01*
X96090000Y-68105000D01*
X96105946Y-68118629D01*
X96119000Y-68131000D01*
X96132000Y-68146000D01*
X96145000Y-68165000D01*
X96153000Y-68181000D01*
X96159000Y-68194000D01*
X96164000Y-68208000D01*
X96168000Y-68221000D01*
X96171000Y-68235000D01*
X96173000Y-68248000D01*
X96173000Y-68290000D01*
X96171000Y-68301000D01*
X96166000Y-68326000D01*
X96162000Y-68339000D01*
X96154000Y-68358000D01*
X96149000Y-68368000D01*
X96137000Y-68387000D01*
X96116000Y-68412000D01*
X96104000Y-68423000D01*
X96086000Y-68437000D01*
X96070000Y-68447000D01*
X96058000Y-68453000D01*
X96044000Y-68459000D01*
X96034000Y-68463000D01*
X96027000Y-68465000D01*
X96016000Y-68468000D01*
X96003000Y-68471000D01*
X95991000Y-68472000D01*
X95978000Y-68473000D01*
X95955000Y-68473000D01*
X95944000Y-68472000D01*
X95934000Y-68471000D01*
X95921000Y-68468000D01*
X95911000Y-68465000D01*
X95898000Y-68461000D01*
X95890000Y-68457000D01*
X95879000Y-68452000D01*
X95869000Y-68447000D01*
X95858000Y-68440000D01*
X95848000Y-68433000D01*
X95839000Y-68426000D01*
X95832000Y-68420000D01*
X95816000Y-68404000D01*
X95806000Y-68391000D01*
X95791000Y-68368000D01*
X95783000Y-68352000D01*
X95776000Y-68335000D01*
X95772000Y-68320000D01*
X95769000Y-68306000D01*
X95767000Y-68294000D01*
X95766000Y-68275000D01*
X95766000Y-68255000D01*
X95768000Y-68237000D01*
X95770000Y-68227000D01*
X95773000Y-68215000D01*
X95782000Y-68190000D01*
X95791000Y-68172000D01*
X95803000Y-68153000D01*
X95816000Y-68136000D01*
X95829000Y-68122000D01*
X95846000Y-68108000D01*
X95866000Y-68094000D01*
X95882000Y-68086000D01*
X95900000Y-68078000D01*
X95916000Y-68073000D01*
X95932000Y-68069000D01*
X95951000Y-68067000D01*
X95978000Y-68067000D01*
X95994000Y-68068000D01*
G37*
X95994000Y-68068000D02*
X96014000Y-68070000D01*
X96035000Y-68076000D01*
X96056000Y-68085000D01*
X96076000Y-68096000D01*
X96090000Y-68105000D01*
X96105946Y-68118629D01*
X96119000Y-68131000D01*
X96132000Y-68146000D01*
X96145000Y-68165000D01*
X96153000Y-68181000D01*
X96159000Y-68194000D01*
X96164000Y-68208000D01*
X96168000Y-68221000D01*
X96171000Y-68235000D01*
X96173000Y-68248000D01*
X96173000Y-68290000D01*
X96171000Y-68301000D01*
X96166000Y-68326000D01*
X96162000Y-68339000D01*
X96154000Y-68358000D01*
X96149000Y-68368000D01*
X96137000Y-68387000D01*
X96116000Y-68412000D01*
X96104000Y-68423000D01*
X96086000Y-68437000D01*
X96070000Y-68447000D01*
X96058000Y-68453000D01*
X96044000Y-68459000D01*
X96034000Y-68463000D01*
X96027000Y-68465000D01*
X96016000Y-68468000D01*
X96003000Y-68471000D01*
X95991000Y-68472000D01*
X95978000Y-68473000D01*
X95955000Y-68473000D01*
X95944000Y-68472000D01*
X95934000Y-68471000D01*
X95921000Y-68468000D01*
X95911000Y-68465000D01*
X95898000Y-68461000D01*
X95890000Y-68457000D01*
X95879000Y-68452000D01*
X95869000Y-68447000D01*
X95858000Y-68440000D01*
X95848000Y-68433000D01*
X95839000Y-68426000D01*
X95832000Y-68420000D01*
X95816000Y-68404000D01*
X95806000Y-68391000D01*
X95791000Y-68368000D01*
X95783000Y-68352000D01*
X95776000Y-68335000D01*
X95772000Y-68320000D01*
X95769000Y-68306000D01*
X95767000Y-68294000D01*
X95766000Y-68275000D01*
X95766000Y-68255000D01*
X95768000Y-68237000D01*
X95770000Y-68227000D01*
X95773000Y-68215000D01*
X95782000Y-68190000D01*
X95791000Y-68172000D01*
X95803000Y-68153000D01*
X95816000Y-68136000D01*
X95829000Y-68122000D01*
X95846000Y-68108000D01*
X95866000Y-68094000D01*
X95882000Y-68086000D01*
X95900000Y-68078000D01*
X95916000Y-68073000D01*
X95932000Y-68069000D01*
X95951000Y-68067000D01*
X95978000Y-68067000D01*
X95994000Y-68068000D01*
M02*
