M48
; DRILL file {KiCad (5.1.4-0-10_14)} date Sunday, 22 August 2021 at 21:38:00
; FORMAT={-:-/ absolute / metric / decimal}
; #@! TF.CreationDate,2021-08-22T21:38:00+02:00
; #@! TF.GenerationSoftware,Kicad,Pcbnew,(5.1.4-0-10_14)
FMAT,2
METRIC
T1C0.980
T2C1.000
T3C1.300
T4C1.320
T5C2.200
T6C0.991
T7C1.200
T8C1.702
T9C3.429
%
G90
G05
T1
X177.04Y-56.157
X177.04Y-58.697
X177.04Y-61.237
X177.04Y-63.777
X177.04Y-66.317
X177.04Y-68.857
X177.04Y-71.397
X177.04Y-73.937
X177.04Y-76.477
X177.04Y-79.017
X177.04Y-81.557
X177.04Y-84.097
X178.366Y-54.887
X178.366Y-57.427
X178.366Y-59.967
X178.366Y-62.507
X178.366Y-65.047
X178.366Y-67.587
X178.366Y-70.127
X178.366Y-72.667
X178.366Y-75.207
X178.366Y-77.747
X178.366Y-80.287
X178.366Y-82.827
X192.28Y-56.157
X192.28Y-58.697
X192.28Y-61.237
X192.28Y-63.777
X192.28Y-66.317
X192.28Y-68.857
X192.28Y-71.397
X192.28Y-73.937
X192.28Y-76.477
X192.28Y-79.017
X192.28Y-81.557
X192.28Y-84.097
X193.586Y-54.887
X193.586Y-57.427
X193.586Y-59.967
X193.586Y-62.507
X193.586Y-65.047
X193.586Y-67.587
X193.586Y-70.127
X193.586Y-72.667
X193.586Y-75.207
X193.586Y-77.747
X193.586Y-80.287
X193.586Y-82.827
T3
X179.09Y-92.28
X179.09Y-98.78
T4
X92.159Y-111.864
X97.563Y-112.316
X101.67Y-108.774
X104.308Y-78.939
X142.405Y-91.76
X147.405Y-93.86
X152.405Y-91.76
X123.06Y-54.069
X128.13Y-55.993
X133.054Y-53.72
X160.405Y-60.135
X165.405Y-62.235
X170.405Y-60.135
X123.654Y-71.067
X128.724Y-72.991
X109.551Y-80.323
X114.21Y-77.547
X106.673Y-95.774
X111.916Y-97.158
X116.575Y-94.382
X124.244Y-88.057
X129.314Y-89.981
X134.238Y-87.708
X133.648Y-70.718
X142.405Y-74.755
X147.405Y-76.855
X152.405Y-74.755
X179.968Y-107.958
X185.388Y-107.789
X189.304Y-111.541
X168.999Y-105.37
X165.405Y-96.235
X91.16Y-76.434
X160.405Y-77.135
X159.045Y-104.411
X164.223Y-102.8
X160.405Y-94.135
X170.405Y-94.135
X96.415Y-92.604
X142.405Y-57.755
X147.405Y-59.855
X152.405Y-57.755
X81.649Y-79.524
X87.053Y-79.976
X165.405Y-79.235
X170.405Y-77.135
X86.904Y-95.694
X92.308Y-96.146
X101.943Y-62.104
X107.186Y-63.488
X111.845Y-60.712
T5
X192.94Y-87.17
X177.695Y-87.175
T6
X152.625Y-83.76
X152.625Y-66.755
X160.185Y-69.135
X170.625Y-69.135
X176.896Y-115.347
X186.642Y-119.089
X158.059Y-112.353
X168.451Y-113.354
X142.185Y-83.76
X142.185Y-66.755
X122.561Y-46.082
X160.185Y-86.135
X170.625Y-86.135
X132.994Y-45.717
X142.185Y-49.755
X88.897Y-68.757
X160.185Y-52.135
X170.625Y-52.135
X123.155Y-63.08
X78.968Y-71.984
X152.625Y-49.755
X133.588Y-62.715
X89.478Y-104.324
X99.407Y-101.097
X84.223Y-88.154
X94.152Y-84.927
X100.611Y-54.212
X110.95Y-52.759
X102.976Y-71.047
X113.315Y-69.594
X105.341Y-87.882
X115.68Y-86.429
X123.745Y-80.07
X134.178Y-79.705
T7
X186.32Y-94.645
X186.32Y-96.395
X193.32Y-94.645
X193.32Y-96.395
T8
X123.611Y-84.277
X134.605Y-83.893
X141.905Y-70.955
X152.905Y-70.955
X159.905Y-73.335
X100.919Y-58.41
X111.811Y-56.88
X105.649Y-92.08
X116.541Y-90.55
X170.905Y-56.335
X141.905Y-87.96
X152.905Y-87.96
X122.427Y-50.289
X133.421Y-49.905
X90.509Y-108.405
X100.971Y-105.005
X103.284Y-75.245
X114.176Y-73.715
X170.905Y-73.335
X123.021Y-67.287
X79.999Y-76.065
X90.461Y-72.665
X159.905Y-90.335
X85.254Y-92.235
X95.716Y-88.835
X141.905Y-53.955
X152.905Y-53.955
X159.905Y-56.335
X170.905Y-90.335
X134.015Y-66.903
X178.139Y-111.326
X188.409Y-115.268
X158.183Y-108.146
X169.133Y-109.2
T9
X106.365Y-57.645
X111.095Y-91.315
X147.405Y-70.955
X147.405Y-87.96
X129.108Y-84.085
X165.405Y-73.335
X183.274Y-113.297
X163.658Y-108.673
X165.405Y-90.335
X127.924Y-50.097
X128.518Y-67.095
X85.23Y-74.365
X90.485Y-90.535
X147.405Y-53.955
X165.405Y-56.335
X95.74Y-106.705
X108.73Y-74.48
T2
G00X183.27Y-94.295
M15
G01X182.77Y-94.295
M16
G05
G00X183.27Y-96.745
M15
G01X182.77Y-96.745
M16
G05
G00X184.77Y-92.545
M15
G01X184.27Y-92.545
M16
G05
G00X184.77Y-98.495
M15
G01X184.27Y-98.495
M16
G05
G00X188.77Y-92.545
M15
G01X188.27Y-92.545
M16
G05
G00X188.77Y-98.495
M15
G01X188.27Y-98.495
M16
G05
G00X191.77Y-92.545
M15
G01X191.27Y-92.545
M16
G05
G00X191.77Y-98.495
M15
G01X191.27Y-98.495
M16
G05
T0
M30
