G04 #@! TF.GenerationSoftware,KiCad,Pcbnew,(5.1.4-0-10_14)*
G04 #@! TF.CreationDate,2021-08-22T21:37:58+02:00*
G04 #@! TF.ProjectId,lory,6c6f7279-2e6b-4696-9361-645f70636258,2.1*
G04 #@! TF.SameCoordinates,Original*
G04 #@! TF.FileFunction,Soldermask,Top*
G04 #@! TF.FilePolarity,Negative*
%FSLAX46Y46*%
G04 Gerber Fmt 4.6, Leading zero omitted, Abs format (unit mm)*
G04 Created by KiCad (PCBNEW (5.1.4-0-10_14)) date 2021-08-22 21:37:58*
%MOMM*%
%LPD*%
G04 APERTURE LIST*
%ADD10C,2.020000*%
%ADD11C,1.390600*%
%ADD12C,2.528000*%
%ADD13C,3.829000*%
%ADD14C,2.101800*%
%ADD15C,1.600000*%
%ADD16O,2.900000X2.100000*%
%ADD17C,2.800000*%
%ADD18C,2.400000*%
G04 APERTURE END LIST*
D10*
X192280000Y-56157000D03*
X192280000Y-58697000D03*
X192280000Y-61237000D03*
X192280000Y-63777000D03*
X192280000Y-66317000D03*
X192280000Y-68857000D03*
X192280000Y-71397000D03*
X192280000Y-73937000D03*
X192280000Y-76477000D03*
X192280000Y-79017000D03*
X192280000Y-81557000D03*
X192280000Y-84097000D03*
X177040000Y-84097000D03*
X177040000Y-81557000D03*
X177040000Y-79017000D03*
X177040000Y-76477000D03*
X177040000Y-73937000D03*
X177040000Y-71397000D03*
X177040000Y-68857000D03*
X177040000Y-66317000D03*
X177040000Y-63777000D03*
X177040000Y-61237000D03*
X177040000Y-58697000D03*
X177040000Y-56157000D03*
X193586400Y-54887000D03*
X193586400Y-57427000D03*
X193586400Y-59967000D03*
X193586400Y-62507000D03*
X193586400Y-65047000D03*
X193586400Y-67587000D03*
X193586400Y-70127000D03*
X193586400Y-72667000D03*
X193586400Y-75207000D03*
X193586400Y-77747000D03*
X193586400Y-80287000D03*
X193586400Y-82827000D03*
X178366400Y-82827000D03*
X178366400Y-80287000D03*
X178366400Y-77747000D03*
X178366400Y-75207000D03*
X178366400Y-72667000D03*
X178366400Y-70127000D03*
X178366400Y-67587000D03*
X178366400Y-65047000D03*
X178366400Y-62507000D03*
X178366400Y-59967000D03*
X178366400Y-57427000D03*
X178366400Y-54887000D03*
D11*
X142185000Y-83760000D03*
D12*
X152405000Y-91760000D03*
D13*
X147405000Y-87960000D03*
D12*
X142405000Y-91760000D03*
X147405000Y-93860000D03*
D11*
X152625000Y-83760000D03*
D14*
X152905000Y-87960000D03*
X141905000Y-87960000D03*
D11*
X160185000Y-86135000D03*
D12*
X170405000Y-94135000D03*
D13*
X165405000Y-90335000D03*
D12*
X160405000Y-94135000D03*
X165405000Y-96235000D03*
D11*
X170625000Y-86135000D03*
D14*
X170905000Y-90335000D03*
X159905000Y-90335000D03*
D11*
X78967614Y-71983631D03*
D12*
X91159547Y-76433930D03*
D13*
X85230000Y-74365000D03*
D12*
X81648982Y-79524100D03*
X87053200Y-79976232D03*
D11*
X88896644Y-68757494D03*
D14*
X90460811Y-72665407D03*
X79999189Y-76064593D03*
X85254189Y-92234593D03*
X95715811Y-88835407D03*
D11*
X94151644Y-84927494D03*
D12*
X92308200Y-96146232D03*
X86903982Y-95694100D03*
D13*
X90485000Y-90535000D03*
D12*
X96414547Y-92603930D03*
D11*
X84222614Y-88153631D03*
D14*
X90509189Y-108404593D03*
X100970811Y-105005407D03*
D11*
X99406644Y-101097494D03*
D12*
X97563200Y-112316232D03*
X92158982Y-111864100D03*
D13*
X95740000Y-106705000D03*
D12*
X101669547Y-108773930D03*
D11*
X89477614Y-104323631D03*
X100611274Y-54212358D03*
D12*
X111845198Y-60712153D03*
D13*
X106365000Y-57645000D03*
D12*
X101942517Y-62103884D03*
X107186121Y-63487582D03*
D11*
X110949672Y-52759391D03*
D14*
X111811474Y-56879548D03*
X100918526Y-58410452D03*
D11*
X102976274Y-71047358D03*
D12*
X114210198Y-77547153D03*
D13*
X108730000Y-74480000D03*
D12*
X104307517Y-78938884D03*
X109551121Y-80322582D03*
D11*
X113314672Y-69594391D03*
D14*
X114176474Y-73714548D03*
X103283526Y-75245452D03*
D11*
X105341274Y-87882358D03*
D12*
X116575198Y-94382153D03*
D13*
X111095000Y-91315000D03*
D12*
X106672517Y-95773884D03*
X111916121Y-97157582D03*
D11*
X115679672Y-86429391D03*
D14*
X116541474Y-90549548D03*
X105648526Y-92080452D03*
D11*
X123744602Y-80069734D03*
D12*
X134237572Y-87708188D03*
D13*
X129108000Y-84085000D03*
D12*
X124243664Y-88057183D03*
X129313907Y-89981406D03*
D11*
X134178242Y-79705383D03*
D14*
X134604650Y-83893053D03*
X123611350Y-84276947D03*
D11*
X122560602Y-46081734D03*
D12*
X133053572Y-53720188D03*
D13*
X127924000Y-50097000D03*
D12*
X123059664Y-54069183D03*
X128129907Y-55993406D03*
D11*
X132994242Y-45717383D03*
D14*
X133420650Y-49905053D03*
X122427350Y-50288947D03*
D11*
X123154602Y-63079734D03*
D12*
X133647572Y-70718188D03*
D13*
X128518000Y-67095000D03*
D12*
X123653664Y-71067183D03*
X128723907Y-72991406D03*
D11*
X133588242Y-62715383D03*
D14*
X134014650Y-66903053D03*
X123021350Y-67286947D03*
D11*
X142185000Y-49755000D03*
D12*
X152405000Y-57755000D03*
D13*
X147405000Y-53955000D03*
D12*
X142405000Y-57755000D03*
X147405000Y-59855000D03*
D11*
X152625000Y-49755000D03*
D14*
X152905000Y-53955000D03*
X141905000Y-53955000D03*
D11*
X142185000Y-66755000D03*
D12*
X152405000Y-74755000D03*
D13*
X147405000Y-70955000D03*
D12*
X142405000Y-74755000D03*
X147405000Y-76855000D03*
D11*
X152625000Y-66755000D03*
D14*
X152905000Y-70955000D03*
X141905000Y-70955000D03*
D11*
X160185000Y-52135000D03*
D12*
X170405000Y-60135000D03*
D13*
X165405000Y-56335000D03*
D12*
X160405000Y-60135000D03*
X165405000Y-62235000D03*
D11*
X170625000Y-52135000D03*
D14*
X170905000Y-56335000D03*
X159905000Y-56335000D03*
D11*
X170625000Y-69135000D03*
D12*
X160405000Y-77135000D03*
D13*
X165405000Y-73335000D03*
D12*
X170405000Y-77135000D03*
X165405000Y-79235000D03*
D11*
X160185000Y-69135000D03*
D14*
X159905000Y-73335000D03*
X170905000Y-73335000D03*
D15*
X186320000Y-94645000D03*
X193320000Y-94645000D03*
D16*
X184520000Y-92545000D03*
X183020000Y-96745000D03*
X191520000Y-92545000D03*
X188520000Y-92545000D03*
D15*
X193320000Y-96395000D03*
X186320000Y-96395000D03*
D16*
X191520000Y-98495000D03*
X188520000Y-98495000D03*
X184520000Y-98495000D03*
X183020000Y-94295000D03*
D17*
X192940000Y-87170000D03*
X177695000Y-87175000D03*
D14*
X178139308Y-111325976D03*
X188408692Y-115268024D03*
D11*
X186642144Y-119088718D03*
D12*
X185388371Y-107788875D03*
X179967895Y-107957554D03*
D13*
X183274000Y-113297000D03*
D12*
X189303700Y-111541234D03*
D11*
X176895565Y-115347357D03*
D14*
X158183321Y-108145848D03*
X169132679Y-109200152D03*
D11*
X168451416Y-113353979D03*
D12*
X164223490Y-102800162D03*
X159045233Y-104411266D03*
D13*
X163658000Y-108673000D03*
D12*
X168999195Y-105369723D03*
D11*
X158059480Y-112353349D03*
D18*
X179090000Y-92280000D03*
X179090000Y-98780000D03*
M02*
