G04 #@! TF.GenerationSoftware,KiCad,Pcbnew,(5.1.4-0-10_14)*
G04 #@! TF.CreationDate,2021-08-26T22:39:10+02:00*
G04 #@! TF.ProjectId,lory,6c6f7279-2e6b-4696-9361-645f70636258,2.1*
G04 #@! TF.SameCoordinates,Original*
G04 #@! TF.FileFunction,Profile,NP*
%FSLAX46Y46*%
G04 Gerber Fmt 4.6, Leading zero omitted, Abs format (unit mm)*
G04 Created by KiCad (PCBNEW (5.1.4-0-10_14)) date 2021-08-26 22:39:10*
%MOMM*%
%LPD*%
G04 APERTURE LIST*
%ADD10C,0.150000*%
G04 APERTURE END LIST*
D10*
X184974168Y-124982517D02*
G75*
G03X149044781Y-116111726I-65974168J-190017483D01*
G01*
X189725000Y-51315253D02*
G75*
G02X190142610Y-50940000I417610J-44747D01*
G01*
X180895000Y-58970000D02*
X189730000Y-58975000D01*
X180530000Y-50965000D02*
G75*
G02X180901441Y-51382183I-48559J-417183D01*
G01*
X190140000Y-50940000D02*
X194215000Y-50940377D01*
X189730000Y-58975000D02*
X189725000Y-51315253D01*
X180895000Y-58970000D02*
X180901441Y-51382183D01*
X190050908Y-123556113D02*
G75*
G02X184974167Y-124982518I-3544412J2867418D01*
G01*
X90520135Y-117925629D02*
G75*
G02X89172412Y-117201738I-248345J1154163D01*
G01*
X194215000Y-50940377D02*
G75*
G02X195045000Y-51710000I35000J-794623D01*
G01*
X175290005Y-50965251D02*
G75*
G02X174480000Y-50195000I-15005J795251D01*
G01*
X195045000Y-51705000D02*
X195042003Y-108990862D01*
X175290000Y-50965000D02*
X180530000Y-50965000D01*
X174480000Y-50195000D02*
X174475405Y-44009258D01*
X173850849Y-43257342D02*
G75*
G02X174475405Y-44009258I-170444J-776916D01*
G01*
X71938953Y-64242666D02*
X89172412Y-117201738D01*
X149044781Y-116111725D02*
G75*
G03X90520135Y-117925628I-23544781J-185380556D01*
G01*
X195042003Y-108990862D02*
G75*
G02X190050908Y-123556113I-22262260J-509138D01*
G01*
X71938952Y-64242666D02*
G75*
G02X78610583Y-50387227I11498599J2997200D01*
G01*
X78610583Y-50387227D02*
G75*
G02X173850849Y-43257342I60686117J-170969132D01*
G01*
M02*
